<svg id="Warstwa_1" data-name="Warstwa 1" xmlns="http://www.w3.org/2000/svg" width="300" height="131" viewBox="0 0 300 131">
  <defs>
    <style>
      .cls-1 {
        fill: #fe5c03;
      }

      .cls-2 {
        fill: #fe5d06;
      }
    </style>
  </defs>
  <g>
    <path class="cls-1" d="M196.7,77.8c-.3,4.4.6,10.2-.7,15.9-1.7,7.8-7,12.4-14.9,13.3-4.4.6-8.7.2-13.1,0-1.7-.1-2.3-.8-2.2-2.4.1-8.2-.9-7.1,6.2-6.3a26.6,26.6,0,0,0,6.9-.3c6.4-1.2,9.5-5.7,8.2-12.1-.4-2.1-1.4-1-2.3-.6a23.6,23.6,0,0,1-17.5,1.4c-11-3.3-17.3-14.3-15.2-26.3s12.1-19,24.6-18.1a21.9,21.9,0,0,1,20,21.4C196.8,67.9,196.7,72.2,196.7,77.8Zm-10-13c0-6.7-3.3-11.8-8.4-13.3-7.5-2.1-13.9,2.2-15.6,10.7s4.6,17.3,12.9,16.7C182.3,78.4,186.8,72.8,186.7,64.8Z"/>
    <path class="cls-2" d="M64.3,71.2V85.3c0,1.4,0,2.7-2,2.6-8.6-.1-17.2.7-25.8-.4s-11.2-5.1-12-12.1,2.6-12,9-14.7,11.5-2,17.4-2c1.1,0,2.8.6,3.4-.5s0-2.9-.8-4.3-3.2-2.8-5.5-3.1a22.4,22.4,0,0,0-14.1,3c-2.4,1.4-3.2.9-3.3-1.8-.4-6.1-.5-6.1,5.2-8.1a29.5,29.5,0,0,1,18.1-.6c6.4,1.9,9.9,6.6,10.2,13.9.3,4.7.1,9.4.1,14ZM46.8,79.6c7.7,0,7.7,0,7.7-7.8V68.6c0-.8,0-1.7-1.1-1.6-4.8.1-9.6-.9-14.3.8a6.3,6.3,0,0,0-4.3,6.9c.4,2.6,2.9,4.7,6.2,4.9S44.9,79.6,46.8,79.6Z"/>
    <path class="cls-1" d="M131.3,68.5H117.9c-1.8,0-2,.5-1.6,2.1a12,12,0,0,0,10.3,8.3,22,22,0,0,0,14.2-2.7c2.3-1.4,3-.8,3.1,1.7.2,6.8-.3,7.5-6.9,9a35,35,0,0,1-13.3.5,21.7,21.7,0,0,1-18.9-21.3c-.3-12.1,6.3-21.2,17-23.5,15-3.1,27.5,9,25.1,24.2-.3,1.7-1.2,1.7-2.5,1.7Zm-5.3-8c2.6,0,5.2-.1,7.8.1s2.7-.9,2.1-2.9c-1.2-4.4-5-7-9.9-6.7s-9.2,3.9-9.8,8c-.3,1.6.6,1.5,1.6,1.5Z"/>
    <path class="cls-1" d="M230.6,64.6c.1-13,9.5-22.4,22.5-22.3s22.6,9.8,22.5,22.9S266,87.8,253.1,87.8,230.5,78,230.6,64.6Zm34.2.9c0-8-4.9-14.1-11.1-14.5s-10.9,4.4-12.2,11.7a2,2,0,0,0-.1.7c-1,7.1,3.8,14.5,10,15.4s11.9-3.9,13.2-11.3A9.2,9.2,0,0,0,264.8,65.5Z"/>
    <path class="cls-1" d="M71.2,55.7c0-9.6.1-19.1,0-28.7-.1-2.6.8-3.3,3.3-3.3,6.8.1,6.8,0,6.8,6.7,0,18.1-.1,36.1,0,54.1.1,2.7-.8,3.6-3.5,3.5-7.7-.2-6.5,1-6.6-6.6Z"/>
    <path class="cls-1" d="M99,56.1c0,9.4-.1,18.9,0,28.3.1,2.7-.6,3.7-3.4,3.6-7.8-.2-6.7,1-6.7-6.5,0-17.9.1-35.8-.1-53.8,0-3,.8-4.1,4-4,7.3.3,6.1-.7,6.2,6.3Z"/>
    <path class="cls-2" d="M203.2,72.1c0-4-.1-8,0-12,.2-10.4,10-20,23.9-17.6a2.1,2.1,0,0,1,1.9,2.3v2.3c0,4.5,0,4.5-4.6,4.3-7.1-.4-10.8,3-10.8,10.2s-.1,15.5,0,23.2c0,2.4-.8,3.3-3.2,3.2-8.5-.2-7.1.9-7.2-7.1-.1-2.9,0-5.8,0-8.8Z"/>
  </g>
</svg>
