<svg id="Warstwa_1" data-name="Warstwa 1" xmlns="http://www.w3.org/2000/svg" width="168" height="131" viewBox="0 0 168 131">
  <defs>
    <style>
      .cls-1 {
        fill: #304b5c;
      }
    </style>
  </defs>
  <path class="cls-1" d="M80.7,4.4h6.5c.1.2.4.1.5.1l5.1.5,1.9.3,2,.4,2,.4,4,1.2,2,.6,4,1.7,1.9.8.4.2a9.1,9.1,0,0,0,1.7.9l3.9,2.2,1.2.8,1,.6,3.8,2.8.7.7a8.8,8.8,0,0,0,1.5,1.2,1.3,1.3,0,0,0,.7.6,5.3,5.3,0,0,0,1.3,1.3l.8.8,1.2,1.2a3.4,3.4,0,0,0,.8.9,5.2,5.2,0,0,0,1,1.1c.1.3.4.5.7.8l1.5,1.9v.2l2.8,4,1,1.6.2.3,1.2,2a6.1,6.1,0,0,0,.7,1.4l.3.6a12.4,12.4,0,0,0,1,2,8.7,8.7,0,0,0,.7,1.7.4.4,0,0,0,.2.4l.8,2,.6,1.8.3,1a2.1,2.1,0,0,0,.4,1.1,14.2,14.2,0,0,0,.5,2.2l.5,2,.7,3.8c.2,1.6.3,3.3.5,4.9s-.1.7.2,1v7.1a15.5,15.5,0,0,0-.3,3.1,4.7,4.7,0,0,0-.2,1.7c-.3,1.5-.5,2.9-.8,4.3a14.2,14.2,0,0,0-.4,2l-.6,2-1.2,4-.8,1.9-1.7,4-2.2,4.1c-.3.3-.3.6-.5.9l-.6,1-1.4,2.1-1.5,2.1-.5.6-.9,1.2a18.3,18.3,0,0,0-1.3,1.6,1,1,0,0,0-.5.6c-1.7,1.8-3.5,3.6-5.3,5.3a1,1,0,0,0-.6.5,10.7,10.7,0,0,0-1.6,1.4,1.3,1.3,0,0,0-.9.7l-.9.6-1.9,1.4h-.1l-2.2,1.4-.9.5c-.3.3-.7.3-1,.6l-4.1,2.2-4,1.7-2,.8-3.9,1.2-2,.6-2,.4-2.9.5h-.2V83.9c.3.1.2-.1.2-.2h13.5c.5,0,.7-.2.7-.6l.6-3.5c.4-2.9.9-5.7,1.3-8.6s.4-3,.7-4.5-.1-.7-.6-.6H93.8c0-.2.1-.3-.2-.3V56.7a21.3,21.3,0,0,1,.2-4.4A8.1,8.1,0,0,1,97.9,46a10.4,10.4,0,0,1,4.9-1.2h8c.4,0,.6,0,.6-.5V30.1c0-.4-.1-.5-.5-.6l-2.6-.3a67.9,67.9,0,0,0-12-.7,24.9,24.9,0,0,0-9.7,2.1c-6.3,2.9-9.9,7.9-11.4,14.5a35.4,35.4,0,0,0-.8,9.2V65.6c-.3,0-.2.1-.2.3H59.5c-.3,0-.6-.1-.7.3s-.1.1,0,.1v17c-.1,0-.2.1,0,.1s.4.3.7.3H74.4v42.7h-.2l-3.4-.6-2-.5-2.2-.6-.8-.2a3.3,3.3,0,0,0-1.3-.4l-1.8-.6-2.2-.9h-.2a12.1,12.1,0,0,0-2-.9l-1.7-.8-.6-.3a3.1,3.1,0,0,0-1.3-.6l-2.1-1.3-.3-.2-1.7-1-3.9-2.8-.4-.2a10,10,0,0,0-1.6-1.4l-.7-.5a8.6,8.6,0,0,0-1.4-1.3,4.3,4.3,0,0,0-1-.9l-1-1-.8-.8-1.3-1.3c-.1-.3-.4-.5-.6-.7a10.7,10.7,0,0,0-1.4-1.6l-.4-.6c-1-1.2-1.9-2.5-2.9-3.8l-.6-1-.8-1.1-1.2-2-1-2-1-2-.9-2L26,86.5a10.6,10.6,0,0,0-.6-1.9l-1.2-4a11.8,11.8,0,0,0-.4-2l-.4-2-.3-2c-.1-1.4-.4-2.7-.4-4.1a2,2,0,0,0-.2-1.3V62.4c.3-1.2.2-2.5.4-3.7l.3-2.2a11.3,11.3,0,0,0,.3-1.8c.2-.7.2-1.3.4-2l.5-2.2h0v-.2l1.2-3.9a12.1,12.1,0,0,1,.5-1.8,5.4,5.4,0,0,0,.5-1.1l.3-.9a21.4,21.4,0,0,0,1-2.2c.7-1.3,1.3-2.6,1.9-3.9a3.5,3.5,0,0,0,.7-1.2,2.2,2.2,0,0,0,.5-.8l1.2-1.9.3-.5,1.1-1.6.8-1.2.6-.7,3.3-4v-.2l1.9-1.9.3-.3,1.7-1.6.3-.3L46.6,17a1.6,1.6,0,0,0,.8-.6l1.2-.8,1.6-1.1.5-.3L52.6,13l.8-.5a3.5,3.5,0,0,0,1.2-.7l4-2,2-.8,1-.4,1.1-.5,1.8-.5,4.3-1.3,2-.5,1.8-.4,2-.3,2-.3,3-.2C79.9,4.5,80.3,4.7,80.7,4.4Z"/>
</svg>
