<svg id="Warstwa_1" data-name="Warstwa 1" xmlns="http://www.w3.org/2000/svg" width="168" height="131" viewBox="0 0 168 131">
  <defs>
    <style>
      .cls-1 {
        fill: #304b5c;
      }
    </style>
  </defs>
  <path class="cls-1" d="M22.3,117.6V13.4c.2-.1.2-.3.2-.5a11.2,11.2,0,0,1,4.4-6.8,17.1,17.1,0,0,1,5-2.1H135.6l.4.2a11.3,11.3,0,0,1,6.7,3.9c1.4,1.6,1.9,3.5,2.5,5.5v104c-.2.1-.2.3-.2.5a11.2,11.2,0,0,1-4.4,6.8,17.1,17.1,0,0,1-5,2.1H31.6c-.1-.2-.3-.2-.5-.2a11.8,11.8,0,0,1-6.8-4.5A19.6,19.6,0,0,1,22.3,117.6ZM89.7,56.7v-4c0-2.3-1.2-3.5-3.6-3.5H73.2c-2.6,0-3.8,1.1-3.8,3.7v56.8c0,2.6,1.2,3.7,3.7,3.8H85.9c2.7-.1,3.8-1.2,3.8-3.9V80.7a20.3,20.3,0,0,1,2.2-9.4c2.2-4.2,5.7-5.9,10.4-5.6s6.7,2.6,8.2,6.6a23.3,23.3,0,0,1,1.1,7.4v30.1c0,2.5,1.1,3.6,3.6,3.6h13.6c2.4,0,3.5-1.1,3.5-3.6V78a54,54,0,0,0-1.7-13.9c-1.4-4.8-3.7-9-7.9-12a21.5,21.5,0,0,0-11.3-3.8c-4.9-.3-9.7.1-14.2,2.2A22.3,22.3,0,0,0,89.7,56.7ZM60.3,81.3V53c0-2.6-1.2-3.8-3.8-3.8H44c-2.7,0-4,1.2-4,4v56.3c0,2.8,1.2,3.9,4.1,4H55.8c3.5,0,4.5-1,4.5-4.4ZM50.2,43.7a13.1,13.1,0,1,0-13.1-13A13.1,13.1,0,0,0,50.2,43.7Z"/>
</svg>
