<svg id="Warstwa_1" data-name="Warstwa 1" xmlns="http://www.w3.org/2000/svg" width="1700.8" height="1190.6" viewBox="0 0 1700.8 1190.6">
  <defs>
    <style>
      .cls-1 {
        fill: #29525e;
      }
    </style>
  </defs>
  <path class="cls-1" d="M382.1,522.4H443a25.3,25.3,0,0,0,15.4-5,16.1,16.1,0,0,0,6.5-12.5,12.9,12.9,0,0,0-.4-3.5,15.4,15.4,0,0,0-1.5-3.2l-30.7-61.7a19.8,19.8,0,0,0-11.2-8.9,27.8,27.8,0,0,0-16.4.1,19.6,19.6,0,0,0-8.3,5.2,15.8,15.8,0,0,0-3.9,8,14.1,14.1,0,0,0,.9,9l18.8,38H382.1c-5.8.1-10.7,1.7-14.5,4.8a15.6,15.6,0,0,0-6.2,12.2,16.4,16.4,0,0,0,6.2,12.5,22.5,22.5,0,0,0,14.5,5Zm280,90.4L665,615a14.1,14.1,0,0,1-5.6,6,15.8,15.8,0,0,1-8.1,2.1,15,15,0,0,1-11-4.4,16.6,16.6,0,0,1,0-22.5,15,15,0,0,1,11-4.4,14.8,14.8,0,0,1,13.1,7l-3.1,2.2a9.8,9.8,0,0,0-4.1-4.2,11.5,11.5,0,0,0-5.9-1.5,11.1,11.1,0,0,0-8.3,3.5,11.9,11.9,0,0,0-3.3,8.7,12.1,12.1,0,0,0,3.3,8.7,11,11,0,0,0,8.3,3.4,12.1,12.1,0,0,0,6.3-1.7,14.1,14.1,0,0,0,4.5-5.1Zm31.2,9.5V592.5h23.5v3.4H697v8.8h12v3.4H697v10.8h21v3.4Zm51.8,0V592.5h2l19.3,22.3V592.5h3.7v29.8h-1.9L748.8,600v22.3Zm60.8,0V595.9H793.3v-3.4h28.8v3.4H809.6v26.4Zm39.3,0V592.5h17.1a10,10,0,0,1,6.9,2.2,8,8,0,0,1,2.5,6.1,8.5,8.5,0,0,1-7.1,8.4l7.4,13.1h-4.1l-7.4-13.1H848.9v13.1Zm3.7-16.5h13.2a5.9,5.9,0,0,0,4.2-1.3,4.3,4.3,0,0,0,1.5-3.6,4.7,4.7,0,0,0-1.5-3.7,5.5,5.5,0,0,0-4-1.3H848.9v9.9ZM903,592.5v19.3c0,3.1.5,5.2,1.7,6.2s3.4,1.6,6.8,1.6,5.7-.5,6.9-1.6,1.7-3.1,1.7-6.2V592.5h3.7v20.3c0,3.7-.9,6.3-2.8,7.9s-5.1,2.4-9.5,2.4-7.5-.8-9.4-2.4-2.9-4.2-2.9-7.9V592.5H903Zm50.6,29.8V592.5H957l12,18.2,12.1-18.2h3.4v29.8h-3.7V599L969,616.6,957.2,599v23.3Zm76.9-4.5,2.1-3.2a24.1,24.1,0,0,0,6.6,3.7,18.2,18.2,0,0,0,6.8,1.3,11.5,11.5,0,0,0,6.7-1.7,5.3,5.3,0,0,0,2.5-4.5,4.3,4.3,0,0,0-1.8-3.6,9.1,9.1,0,0,0-5.1-1.7l-2.3-.2c-4.9-.3-8.2-.9-10-1.7a8.3,8.3,0,0,1-3.2-2.6,6,6,0,0,1-1-3.5,6.8,6.8,0,0,1,3.2-5.9,13.4,13.4,0,0,1,8.3-2.4,21,21,0,0,1,7.4,1.3,25.3,25.3,0,0,1,6.9,3.6l-2.2,3.1a21.5,21.5,0,0,0-5.8-3.4,18.8,18.8,0,0,0-6.2-1.1,11.6,11.6,0,0,0-5.6,1.3,3.8,3.8,0,0,0-2.2,3.3,2.8,2.8,0,0,0,.4,1.5,5.3,5.3,0,0,0,1,1.2c1.3.9,3.9,1.5,8,1.7a33.2,33.2,0,0,1,4.3.4,12.1,12.1,0,0,1,7.2,2.9,7.6,7.6,0,0,1,2.7,5.9,8.1,8.1,0,0,1-3.7,6.9,15.5,15.5,0,0,1-9.5,2.7,24.9,24.9,0,0,1-8.3-1.3,25.7,25.7,0,0,1-7.2-4Zm57.5,4.5V592.5h23.4v3.4h-19.7v8.8h11.9v3.4h-11.9v10.8h20.9v3.4Zm51.6,0V592.5h17.1a10,10,0,0,1,6.9,2.2,8,8,0,0,1,2.5,6.1,8.5,8.5,0,0,1-7.1,8.4l7.5,13.1h-4.1l-7.5-13.1h-11.6v13.1h-3.7Zm3.7-16.5h13.2a5.9,5.9,0,0,0,4.2-1.3,4.3,4.3,0,0,0,1.5-3.6,4.7,4.7,0,0,0-1.5-3.7,5.5,5.5,0,0,0-4-1.3h-13.4v9.9Zm57.1,16.5-9.7-29.8h3.6l7.4,23,7.6-23h3.3l7.6,22.9,7.4-22.9h3.6l-9.7,29.8h-2.7l-7.9-24-7.8,24Zm56.6,0v-30h3.7v30Zm31.5-4.5,2.2-3.2a24.1,24.1,0,0,0,6.6,3.7,17.7,17.7,0,0,0,6.7,1.3,11.3,11.3,0,0,0,6.7-1.7,5.2,5.2,0,0,0,2.6-4.5,4.3,4.3,0,0,0-1.8-3.6,9.7,9.7,0,0,0-5.2-1.7l-2.2-.2c-4.9-.3-8.3-.9-10-1.7a7.7,7.7,0,0,1-3.2-2.6,6.1,6.1,0,0,1-1.1-3.5,7,7,0,0,1,3.2-5.9,13.9,13.9,0,0,1,8.4-2.4,20.5,20.5,0,0,1,7.3,1.3,22.7,22.7,0,0,1,6.9,3.6l-2.1,3.1a23.1,23.1,0,0,0-5.8-3.4,19.4,19.4,0,0,0-6.3-1.1,11.2,11.2,0,0,0-5.5,1.3,3.8,3.8,0,0,0-2.2,3.3,2.9,2.9,0,0,0,1.4,2.7c1.2.9,3.9,1.5,7.9,1.7a35.2,35.2,0,0,1,4.4.4,12.4,12.4,0,0,1,7.2,2.9,7.9,7.9,0,0,1,2.6,5.9,8.3,8.3,0,0,1-3.6,6.9,15.5,15.5,0,0,1-9.5,2.7,24.5,24.5,0,0,1-8.3-1.3,24.9,24.9,0,0,1-7.3-4Zm70.6,5.3a15.1,15.1,0,0,1-11.1-4.4,16.9,16.9,0,0,1,0-22.5,15.6,15.6,0,0,1,26.6,11.3,15.5,15.5,0,0,1-4.4,11.2,15.1,15.1,0,0,1-11.1,4.4Zm0-3.5a11.4,11.4,0,0,0,8.3-3.4,13.3,13.3,0,0,0,0-17.5,11.4,11.4,0,0,0-8.3-3.4,10.9,10.9,0,0,0-8.3,3.5,11.9,11.9,0,0,0-3.3,8.7,12.1,12.1,0,0,0,3.3,8.7,11.2,11.2,0,0,0,8.3,3.4Zm48.5,2.7-9.7-29.8h3.7l7.4,23,7.6-23h3.3l7.5,22.9,7.5-22.9h3.5l-9.7,29.8H1426l-7.9-24-7.7,24Zm56.6,0V592.5h23.4v3.4h-19.7v8.8h11.9v3.4h-11.9v10.8h20.9v3.4ZM722.3,279.8a15.9,15.9,0,1,1-15.8,15.9,15.9,15.9,0,0,1,15.8-15.9Zm705.5,141.4c0,11.2-16,13.7-24,16.3q-36.5,11.5-36.4,36.5c0,10.1,5,18.2,15.1,24.5a58.4,58.4,0,0,0,13.6,5.4,64.7,64.7,0,0,0,16,1.8q49.1,0,49.1-61c-.4-16.8-2.2-31.1-2.2-48.7s-10.7-27.8-32.1-27.8l-61.7.4A16.7,16.7,0,0,1,1355,365a11,11,0,0,1-4.9-9.4c0-10.6,7-15.8,20.9-15.8h67.8c13.7,0,25.5,4.3,35.4,13.1s14.8,20.3,14.8,34.5l-.4,125.5c0,11.1-4.5,16.6-13.7,16.6s-14.8-6.6-14.8-19.8q-15.9,20.9-53.7,20.9-29.7,0-48.7-12.3-23.1-14.4-23.1-41.8,0-41.1,44.7-58.5c7.5-3,48.5-21.8,48.5,3.2Zm-202.7-80.1c16.4,0,40.4,14.8,53,24.3q40.4,30.6,40.4,81.8,0,35.4-24.5,58.5c-14.7,14-34.3,20.9-58.8,20.9l-67.9.4c-11.3,0-16.9-6.4-16.9-19.1l-.7-212.5c0-12,6.6-18.1,19.8-18.1,8.9,0,13.3,12.2,13.3,36.5-1.8,61.6-1.2,123.2-1.4,185.1h14.1l14,.3q33.3,0,51.6-8.6,24.2-12.3,24.2-43,0-39-30.3-61.3c-12.2-8.8-45.7-12.5-45.7-29.4a15.8,15.8,0,0,1,15.8-15.8Zm-573.5-62c10.6,0,15.9,8.7,15.9,26l-.4,197.4c0,17.5-5.3,26.3-15.9,26.3S635,520.5,635,503.9V306.2c0-18,5.6-27.1,16.6-27.1Zm195.6,62c16.4,0,40.4,14.8,53,24.3q40.3,30.6,40.4,81.8,0,35.4-24.5,58.5c-14.7,14-34.3,20.9-58.8,20.9l-67.9.4c-11.3,0-16.9-6.4-16.9-19.1l-.7-212.5c0-12,6.6-18.1,19.8-18.1,8.9,0,13.3,12.2,13.3,36.5-1.8,61.6-1.2,123.2-1.4,185.1h14.1l14,.3q33.3,0,51.6-8.6c16.2-8.2,24.2-22.5,24.2-43q0-39-30.3-61.3c-12.2-8.8-45.7-12.5-45.7-29.4a15.8,15.8,0,0,1,15.8-15.8ZM1050,421.2c0,11.2-15.9,13.7-23.9,16.3q-36.4,11.5-36.4,36.5c0,10.1,5,18.2,15.1,24.5a56,56,0,0,0,13.5,5.4,65.5,65.5,0,0,0,16.1,1.8q49,0,49.1-61c-.4-16.8-2.2-31.1-2.2-48.7s-10.7-27.8-32.1-27.8l-61.7.4a17.2,17.2,0,0,1-10.3-3.6,11.3,11.3,0,0,1-4.9-9.4c0-10.6,7-15.8,21-15.8h67.8c13.7,0,25.5,4.3,35.3,13.1s14.8,20.3,14.8,34.5l-.3,125.5c0,11.1-4.6,16.6-13.7,16.6s-14.8-6.6-14.8-19.8q-15.9,20.9-53.8,20.9-29.5,0-48.7-12.3-23.1-14.4-23.1-41.8,0-41.1,44.8-58.5c7.5-3,48.4-21.8,48.4,3.2ZM722.3,338.3c11.1,0,16.6,8.5,16.6,25.6V506.4c0,14.7-5.4,22-16.2,22s-15.5-9.7-15.5-29.2V365c0-17.8,5-26.7,15.1-26.7ZM261.7,611.5h0L412.8,299.1,564,611.5a19,19,0,0,0,6.7,7.1,26.4,26.4,0,0,0,10,3.4,25.1,25.1,0,0,0,10.9-.8c5.5-2.2,9.2-5.4,11.3-9.6a14.2,14.2,0,0,0,0-13l-170.6-351a19.4,19.4,0,0,0-4.3-5.8,19,19,0,0,0-7.6-4,23.6,23.6,0,0,0-10.5-1.1,23.9,23.9,0,0,0-9.8,3.4,18.6,18.6,0,0,0-6.7,7.5l-171.3,351a14.9,14.9,0,0,0,.9,13,21.7,21.7,0,0,0,11.1,9.6,25.8,25.8,0,0,0,15.8-.4,21.6,21.6,0,0,0,11.8-9.3Zm89.7,0h0L362,591.4H463.7l10,20.1a17.3,17.3,0,0,0,6.7,7.2,24.8,24.8,0,0,0,10,3.4,27,27,0,0,0,10.9-.9c5.3-2.2,9.1-5.4,11.1-9.6a15.2,15.2,0,0,0,.2-13l-15.1-29.9a17.9,17.9,0,0,0-7.4-8.6,23.3,23.3,0,0,0-12.6-3.7H347.6a23.5,23.5,0,0,0-11.1,3.1,23.2,23.2,0,0,0-8.4,7.7l-15,31.4c-2.1,4.6-2.1,8.8,0,13s5.8,7.4,11.3,9.6a26.7,26.7,0,0,0,11.2.8,22.9,22.9,0,0,0,9.6-3.4,17,17,0,0,0,6.2-7.1Z"/>
  <g>
    <path class="cls-1" d="M285.1,825.5c-32.4,0-58.2-26.4-58.2-59s25.8-58.9,58.2-58.9,58.1,26.4,58.1,58.9S317.5,825.5,285.1,825.5Zm45.1-59c0-25.6-20.1-46.4-45.1-46.4s-45.2,20.8-45.2,46.4S260,813,285.1,813,330.2,792.2,330.2,766.5Z"/>
    <path class="cls-1" d="M422.3,765.1A23.5,23.5,0,0,0,399,741.3H372.3V818a6.3,6.3,0,1,1-12.6,0V735.6a6.6,6.6,0,0,1,6.6-6.8H399c20,0,35.9,16.2,35.9,36.5V818a6.3,6.3,0,1,1-12.6,0V765.1Z"/>
    <path class="cls-1" d="M464.9,823.1a9.5,9.5,0,0,1-9.3-9.6,9.3,9.3,0,0,1,9.3-9.2h41.5c9.1,0,14.9-6.3,14.9-14.1S515.5,776,506.4,776H485c-20.1,0-33.8-14.6-33.8-33s13.7-33.1,33.8-33.1h41.9a9.5,9.5,0,0,1,0,18.9H485.4c-9.1,0-14.9,6.4-14.9,14.2s5.8,14.1,14.9,14.1h22c19.5,0,33.1,14.8,33.1,33.1s-13.6,32.9-33.8,32.9Z"/>
    <path class="cls-1" d="M565.6,713.1a11.8,11.8,0,1,1,11.7-11.7A11.7,11.7,0,0,1,565.6,713.1ZM556.1,737a9.5,9.5,0,1,1,18.9,0v78a9.5,9.5,0,1,1-18.9,0Z"/>
    <path class="cls-1" d="M639.3,823.1a33,33,0,0,1-32.8-33.2V747.7h-11a9.5,9.5,0,0,1,0-18.9h11V709.9a9.5,9.5,0,1,1,19,0v18.9h24.3a9.5,9.5,0,0,1,0,18.9H625.5V790c0,8,5.9,14.3,14,14.3h10.3a9.4,9.4,0,0,1,0,18.8Z"/>
    <path class="cls-1" d="M712.6,823.1c-28,0-47.8-21.1-47.8-47.1s19.8-47.2,47.8-47.2h11.1c17.6,0,29.4,12.6,29.4,28.3s-11.7,28.3-29.4,28.3H706a9.5,9.5,0,0,1,0-18.9h17.7c6.3,0,10.5-4.2,10.5-9.4s-4.2-9.4-10.5-9.4H712.6c-16.8,0-28.9,12.8-28.9,28.3s12.1,28.3,28.9,28.3h26.8a9.4,9.4,0,0,1,0,18.8Z"/>
    <path class="cls-1" d="M809.3,776a9.5,9.5,0,0,1,0-18.9h23.4a9.5,9.5,0,0,1,0,18.9Z"/>
    <path class="cls-1" d="M948.1,825.5c-32.4,0-58.1-26.4-58.1-59s25.7-58.9,58.1-58.9,58.2,26.4,58.2,58.9S980.5,825.5,948.1,825.5Zm45.2-59c0-25.6-20.1-46.4-45.2-46.4S903,740.9,903,766.5,923.1,813,948.1,813,993.3,792.2,993.3,766.5Z"/>
    <path class="cls-1" d="M1085.4,765.1a23.5,23.5,0,0,0-23.3-23.8h-26.8V818a6.3,6.3,0,1,1-12.6,0V735.6a6.6,6.6,0,0,1,6.7-6.8h32.7c20,0,35.9,16.2,35.9,36.5V818a6.3,6.3,0,1,1-12.6,0V765.1Z"/>
    <path class="cls-1" d="M1148.4,728.8h-29.2a9.4,9.4,0,0,1,0-18.8h77.7a9.4,9.4,0,0,1,0,18.8h-29.2v86a9.7,9.7,0,1,1-19.3,0v-86Z"/>
    <path class="cls-1" d="M1226.9,713.1a11.8,11.8,0,1,1,11.7-11.7A11.7,11.7,0,0,1,1226.9,713.1Zm-9.5,23.9a9.5,9.5,0,1,1,18.9,0v78a9.5,9.5,0,1,1-18.9,0Z"/>
    <path class="cls-1" d="M1362.4,766.2a18.4,18.4,0,0,0-18.2-18.5h-16.6V815a9.5,9.5,0,1,1-19,0V747.7h-34.5V815a9.5,9.5,0,1,1-18.9,0V738.4a9.5,9.5,0,0,1,9.5-9.6h79.5c20.5,0,37.1,16.9,37.1,37.7V815a9.5,9.5,0,1,1-18.9,0V766.2Z"/>
    <path class="cls-1" d="M1443.5,823.1c-28.1,0-47.8-21.1-47.8-47.1s19.7-47.2,47.8-47.2h11c17.7,0,29.4,12.6,29.4,28.3s-11.7,28.3-29.4,28.3h-17.7a9.5,9.5,0,0,1,0-18.9h17.7c6.3,0,10.5-4.2,10.5-9.4s-4.2-9.4-10.5-9.4h-11c-16.9,0-28.9,12.8-28.9,28.3s12,28.3,28.9,28.3h26.7a9.4,9.4,0,0,1,0,18.8Z"/>
  </g>
</svg>
