<svg width="218" height="96" viewBox="0 0 218 96" fill="none" xmlns="http://www.w3.org/2000/svg">
<g clip-path="url(#clip0_924_88)">
<path d="M22.4255 64.5034L24.3662 61.0517H41.8321L43.5571 64.5034C43.7727 64.9348 44.204 65.3663 44.6352 65.7978C45.0665 66.0135 45.7134 66.2292 46.3603 66.4449C47.0072 66.4449 47.654 66.4449 48.3009 66.2292C49.1634 65.7978 49.8103 65.3663 50.2416 64.5034C50.6728 63.8562 50.6728 62.9933 50.2416 62.3461L47.654 57.1685C47.4384 56.5213 47.0072 56.0899 46.3603 55.6584C45.7134 55.227 45.0665 55.0112 44.204 55.0112H21.7787C21.1318 55.0112 20.4849 55.227 19.838 55.4427C19.1911 55.8742 18.7599 56.3056 18.3286 56.7371L15.7411 62.1303C15.3098 62.9933 15.3098 63.6404 15.7411 64.2876C16.1723 64.9348 16.8192 65.582 17.6817 66.0135C18.3286 66.2292 18.9755 66.2292 19.6224 66.2292C20.2693 66.2292 20.7005 66.0135 21.3474 65.582C21.7787 65.3663 22.2099 64.9348 22.4255 64.5034ZM6.90033 64.5034L32.9913 10.7865L59.0823 64.5034C59.298 64.9348 59.7292 65.3663 60.1605 65.7978C60.5917 66.0135 61.2386 66.2292 61.8855 66.4449C62.5324 66.4449 63.1793 66.4449 63.8261 66.2292C64.6887 65.7978 65.3355 65.3663 65.7668 64.5034C66.1981 63.8562 66.1981 62.9933 65.7668 62.3461L36.4414 1.94157C36.2257 1.51011 36.0101 1.29438 35.7945 0.862921C35.3632 0.647191 34.932 0.431461 34.5007 0.21573C33.6382 0 33.207 0 32.5601 0C31.9132 0 31.4819 0.21573 30.835 0.647191C30.4038 1.07865 29.9725 1.29438 29.7569 1.94157L0.215855 62.3461C0.000226893 63.209 0.000226893 63.8562 0.431483 64.5034C0.862739 65.1506 1.50962 65.7978 2.37214 66.2292C3.23465 66.4449 4.31279 66.4449 5.1753 66.2292C5.82219 65.7978 6.46907 65.3663 6.90033 64.5034ZM86.2515 17.4742C88.1921 17.4742 89.0546 18.9843 89.0546 21.7888V46.382C89.0546 48.9708 88.1921 50.2652 86.2515 50.2652C84.5264 50.2652 83.6639 48.5393 83.6639 45.3034V22.0045C83.6639 18.9843 84.5264 17.4742 86.2515 17.4742ZM142.53 31.7124C142.53 33.6539 139.727 34.0854 138.433 34.5169C134.337 35.8112 132.18 37.9685 132.18 40.773C132.18 42.4989 133.043 44.009 134.768 45.0876C135.415 45.5191 136.277 45.7348 137.14 45.9506C138.002 46.1663 138.865 46.1663 139.943 46.1663C145.549 46.1663 148.352 42.7146 148.352 35.5955C148.352 32.791 147.921 30.2022 147.921 27.182C147.921 23.9461 145.98 22.436 142.315 22.436H131.749C131.102 22.436 130.455 22.2202 130.024 21.7888C129.377 21.3573 129.161 20.9258 129.161 20.2787C129.161 18.5528 130.455 17.4742 132.827 17.4742H144.471C146.843 17.4742 148.784 18.3371 150.509 19.8472C152.234 21.573 153.096 23.5146 153.096 25.8876V47.4607C153.096 49.4022 152.234 50.2652 150.724 50.2652C148.999 50.2652 148.137 49.1865 148.137 46.8135C146.412 49.1865 143.177 50.4809 138.865 50.4809C135.415 50.4809 132.612 49.8337 130.455 48.3236C127.868 46.5978 126.574 44.2247 126.574 41.2045C126.574 36.4584 129.161 33.2225 134.337 31.0652C135.63 30.6337 142.53 27.3978 142.53 31.7124ZM107.599 17.9056C110.402 17.9056 114.499 20.4944 116.655 22.0045C121.183 25.4562 123.555 30.2022 123.555 36.027C123.555 40.1258 122.046 43.3618 119.243 46.1663C116.655 48.5393 113.421 49.8337 109.108 49.8337H97.4641C95.5235 49.8337 94.4453 48.7551 94.4453 46.5978L94.661 10.1393C94.661 7.98202 95.7391 7.1191 98.111 7.1191C99.6204 7.1191 100.483 9.2764 100.483 13.3753C100.267 23.9461 100.267 34.5169 100.267 45.3034H102.639H105.011C108.892 45.3034 111.696 44.8719 113.852 43.7933C116.655 42.2831 117.949 39.9101 117.949 36.4584C117.949 31.9281 116.224 28.4764 112.774 25.8876C110.617 24.3775 105.011 23.7303 105.011 20.9258C105.011 19.2 106.089 17.9056 107.599 17.9056ZM73.9607 7.33483C75.6857 7.33483 76.7638 8.84494 76.7638 11.8652V45.7348C76.7638 48.7551 75.9013 50.2652 73.9607 50.2652C72.02 50.2652 71.1575 48.7551 71.1575 45.9506V12.0809C71.1575 8.84494 72.2356 7.33483 73.9607 7.33483ZM172.718 17.9056C175.521 17.9056 179.618 20.4944 181.775 22.0045C186.303 25.4562 188.675 30.2022 188.675 36.027C188.675 40.1258 187.165 43.3618 184.362 46.1663C181.775 48.5393 178.54 49.8337 174.228 49.8337H162.584C160.643 49.8337 159.565 48.7551 159.565 46.5978L159.781 10.1393C159.781 7.98202 160.859 7.1191 163.231 7.1191C164.74 7.1191 165.603 9.2764 165.603 13.3753C165.387 23.9461 165.387 34.5169 165.387 45.3034H167.759H170.131C174.012 45.3034 176.815 44.8719 178.972 43.7933C181.775 42.2831 183.068 39.9101 183.068 36.4584C183.068 31.9281 181.343 28.4764 177.893 25.8876C175.737 24.3775 170.131 23.7303 170.131 20.9258C169.915 19.2 171.209 17.9056 172.718 17.9056ZM207.65 31.7124C207.65 33.6539 204.847 34.0854 203.553 34.5169C199.456 35.8112 197.3 37.9685 197.3 40.773C197.3 42.4989 198.162 44.009 199.887 45.0876C200.534 45.5191 201.397 45.7348 202.259 45.9506C203.122 46.1663 203.984 46.1663 205.063 46.1663C210.669 46.1663 213.472 42.7146 213.472 35.5955C213.472 32.791 213.041 30.2022 213.041 27.182C213.041 23.9461 211.1 22.436 207.434 22.436H196.869C196.222 22.436 195.575 22.2202 195.144 21.7888C194.497 21.3573 194.281 20.9258 194.281 20.2787C194.281 18.5528 195.575 17.4742 197.947 17.4742H209.591C211.963 17.4742 213.903 18.3371 215.628 19.8472C217.353 21.3573 218.216 23.2989 218.216 25.6719V47.2449C218.216 49.1865 217.353 50.0494 215.844 50.0494C214.119 50.0494 213.256 48.9708 213.256 46.5978C211.531 48.9708 208.297 50.2652 203.984 50.2652C200.534 50.2652 197.731 49.618 195.575 48.1079C192.987 46.382 191.694 44.009 191.694 40.9888C191.694 36.2427 194.281 33.0067 199.456 30.8494C200.534 30.6337 207.65 27.3978 207.65 31.7124ZM86.2515 7.55056C87.7609 7.55056 89.0546 8.84494 89.0546 10.3551C89.0546 11.6494 87.7609 12.9438 86.2515 12.9438C84.7421 12.9438 83.4483 11.6494 83.4483 10.1393C83.4483 8.62921 84.7421 7.55056 86.2515 7.55056ZM213.903 66.4449V61.2674H218V61.9146H214.55V63.4247H216.706V64.0719H214.55V66.0135H218.216V66.6607H213.903V66.4449ZM203.984 66.4449L202.259 61.2674H202.906L204.2 65.1506L205.494 61.2674H206.141L207.434 65.1506L208.728 61.2674H209.375L207.65 66.4449H207.219L205.925 62.3461L204.631 66.4449H203.984ZM195.791 66.0135C196.437 66.0135 196.869 65.7978 197.3 65.3663C197.731 64.9348 197.947 64.5034 197.947 63.8562C197.947 63.209 197.731 62.7775 197.3 62.3461C196.869 61.9146 196.437 61.6989 195.791 61.6989C195.144 61.6989 194.712 61.9146 194.281 62.3461C193.85 62.7775 193.634 63.209 193.634 63.8562C193.634 64.5034 193.85 64.9348 194.281 65.3663C194.712 65.7978 195.144 66.0135 195.791 66.0135ZM195.791 66.4449C194.928 66.4449 194.497 66.2292 193.85 65.582C193.419 65.1506 193.203 64.5034 193.203 63.6404C193.203 62.7775 193.419 62.1303 193.85 61.6989C194.281 61.2674 194.928 60.836 195.791 60.836C196.653 60.836 197.3 61.0517 197.731 61.6989C198.162 62.1303 198.594 62.7775 198.594 63.6404C198.594 64.5034 198.378 65.1506 197.947 65.582C197.084 66.2292 196.437 66.4449 195.791 66.4449ZM183.5 65.582L183.931 64.9348C184.362 65.1506 184.578 65.3663 185.009 65.582C185.44 65.7978 185.872 65.7978 186.087 65.7978C186.519 65.7978 186.95 65.7978 187.165 65.582C187.381 65.3663 187.597 65.1506 187.597 64.7191C187.597 64.5034 187.597 64.2876 187.381 64.0719C187.165 63.8562 186.95 63.8562 186.519 63.8562C186.519 63.8562 186.303 63.8562 186.087 63.8562C185.225 63.8562 184.578 63.6404 184.362 63.6404C184.147 63.4247 183.931 63.4247 183.715 63.209C183.5 62.9933 183.5 62.7775 183.5 62.5618C183.5 62.1303 183.715 61.9146 184.147 61.4831C184.578 61.2674 185.009 61.0517 185.656 61.0517C186.087 61.0517 186.519 61.0517 186.95 61.2674C187.381 61.4831 187.812 61.6989 188.244 61.9146L187.812 62.5618C187.597 62.3461 187.165 62.1303 186.734 61.9146C186.303 61.6989 186.087 61.6989 185.656 61.6989C185.225 61.6989 185.009 61.6989 184.794 61.9146C184.578 62.1303 184.362 62.3461 184.362 62.5618V62.7775C184.362 62.7775 184.362 62.9933 184.578 62.9933C184.794 63.209 185.225 63.209 185.872 63.209C186.087 63.209 186.519 63.209 186.519 63.209C186.95 63.209 187.381 63.4247 187.812 63.6404C188.028 63.8562 188.244 64.2876 188.244 64.7191C188.244 65.1506 188.028 65.582 187.597 65.7978C187.165 66.0135 186.734 66.2292 185.872 66.2292C185.44 66.2292 184.794 66.2292 184.362 66.0135C184.362 66.2292 183.931 66.0135 183.5 65.582ZM178.109 66.4449V61.2674H178.756V66.4449H178.109ZM168.406 66.4449L166.681 61.2674H167.328L168.621 65.1506L169.915 61.2674H170.562L171.856 65.1506L173.15 61.2674H173.796L172.071 66.4449H171.64L170.346 62.3461L169.053 66.4449H168.406ZM158.702 63.4247H160.859C161.074 63.4247 161.506 63.4247 161.506 63.209C161.721 62.9933 161.721 62.7775 161.721 62.5618C161.721 62.3461 161.721 62.1303 161.506 61.9146C161.29 61.6989 161.074 61.6989 160.859 61.6989H158.487V63.4247H158.702ZM158.056 66.4449V61.2674H161.074C161.506 61.2674 161.937 61.4831 162.153 61.6989C162.368 61.9146 162.584 62.3461 162.584 62.7775C162.584 63.209 162.368 63.4247 162.153 63.6404C161.937 63.8562 161.721 64.0719 161.29 64.0719L162.584 66.2292H161.937L160.643 64.0719H158.702V66.2292H158.056V66.4449ZM148.999 66.4449V61.2674H153.096V61.9146H149.646V63.4247H151.802V64.0719H149.646V66.0135H153.312V66.6607H148.999V66.4449ZM139.296 65.582L139.727 64.9348C140.158 65.1506 140.374 65.3663 140.805 65.582C141.237 65.7978 141.668 65.7978 141.884 65.7978C142.315 65.7978 142.746 65.7978 142.962 65.582C143.177 65.3663 143.393 65.1506 143.393 64.7191C143.393 64.5034 143.393 64.2876 143.177 64.0719C142.962 63.8562 142.746 63.8562 142.315 63.8562C142.315 63.8562 142.099 63.8562 141.884 63.8562C141.021 63.8562 140.374 63.6404 140.158 63.6404C139.943 63.4247 139.727 63.4247 139.512 63.209C139.296 62.9933 139.296 62.7775 139.296 62.5618C139.296 62.1303 139.512 61.9146 139.943 61.4831C140.374 61.2674 140.805 61.0517 141.452 61.0517C141.884 61.0517 142.315 61.0517 142.746 61.2674C143.177 61.4831 143.609 61.6989 144.04 61.9146L143.609 62.5618C143.393 62.3461 142.962 62.1303 142.53 61.9146C142.099 61.6989 141.884 61.6989 141.452 61.6989C141.021 61.6989 140.805 61.6989 140.59 61.9146C140.158 62.1303 140.158 62.3461 140.158 62.5618V62.7775C140.158 62.7775 140.158 62.9933 140.374 62.9933C140.59 63.209 141.021 63.209 141.668 63.209C141.883 63.209 142.315 63.209 142.315 63.209C142.746 63.209 143.177 63.4247 143.609 63.6404C143.824 63.8562 144.04 64.2876 144.04 64.7191C144.04 65.1506 143.824 65.582 143.393 65.7978C142.962 66.0135 142.53 66.2292 141.668 66.2292C141.237 66.2292 140.59 66.2292 140.158 66.0135C139.943 66.2292 139.512 66.0135 139.296 65.582ZM125.927 66.4449V61.2674H126.574L128.73 64.5034L130.886 61.2674H131.533V66.4449H130.886V62.3461L128.946 65.3663L127.005 62.3461V66.4449H125.927ZM117.302 61.2674V64.5034C117.302 64.9348 117.302 65.3663 117.518 65.582C117.733 65.7978 118.164 65.7978 118.596 65.7978C119.243 65.7978 119.674 65.7978 119.674 65.582C119.889 65.3663 119.889 65.1506 119.889 64.5034V61.2674H120.536V64.7191C120.536 65.3663 120.321 65.7978 120.105 66.0135C119.674 66.2292 119.243 66.4449 118.38 66.4449C117.733 66.4449 117.086 66.2292 116.655 66.0135C116.224 65.7978 116.224 65.3663 116.224 64.7191V61.2674H117.302ZM108.03 63.4247H110.186C110.402 63.4247 110.833 63.4247 110.833 63.209C111.049 62.9933 111.049 62.7775 111.049 62.5618C111.049 62.3461 111.049 62.1303 110.833 61.9146C110.617 61.6989 110.402 61.6989 110.186 61.6989H107.814V63.4247H108.03ZM107.383 66.4449V61.2674H110.402C110.833 61.2674 111.264 61.4831 111.48 61.6989C111.696 61.9146 111.911 62.3461 111.911 62.7775C111.911 63.209 111.696 63.4247 111.48 63.6404C111.264 63.8562 111.049 64.0719 110.617 64.0719L111.911 66.2292H111.264L109.971 64.0719H108.03V66.2292H107.383V66.4449ZM100.483 66.4449V61.9146H98.3266V61.2674H103.286V61.9146H101.13V66.4449H100.483ZM90.1328 66.4449V61.2674H90.564L93.7985 65.1506V61.2674H94.4453V66.4449H94.0141L90.7797 62.5618V66.4449H90.1328ZM81.292 66.4449V61.2674H85.389V61.9146H81.9389V63.4247H84.0952V64.0719H81.9389V66.0135H85.6046V66.6607H81.292V66.4449ZM75.9013 64.7191L76.3326 65.1506C76.117 65.582 75.6857 66.0135 75.4701 66.2292C75.0388 66.4449 74.6076 66.6607 74.1763 66.6607C73.3138 66.6607 72.8825 66.4449 72.2356 65.7978C71.8044 65.3663 71.5888 64.7191 71.5888 63.8562C71.5888 62.9933 71.8044 62.3461 72.2356 61.9146C72.6669 61.4831 73.3138 61.0517 74.1763 61.0517C74.6076 61.0517 75.0388 61.0517 75.4701 61.2674C75.9013 61.4831 76.117 61.6989 76.3326 62.1303L75.9013 62.5618C75.6857 62.3461 75.4701 61.9146 75.2544 61.9146C75.0388 61.6989 74.6076 61.6989 74.1763 61.6989C73.5294 61.6989 73.0982 61.9146 72.6669 62.3461C72.2356 62.7775 72.02 63.209 72.02 63.8562C72.02 64.5034 72.2356 64.9348 72.6669 65.3663C73.0982 65.7978 73.5294 66.0135 74.1763 66.0135C74.6076 66.0135 75.0388 66.0135 75.2544 65.7978C75.4701 65.3663 75.6857 65.1506 75.9013 64.7191ZM27.8163 49.1865H38.382C39.4602 49.1865 40.3227 48.9708 40.9696 48.3236C41.6164 47.6764 42.0477 47.0292 42.0477 46.1663C42.0477 45.9506 42.0477 45.7348 42.0477 45.5191C42.0477 45.3034 41.8321 45.0876 41.8321 44.8719L36.4414 34.3011C36.0101 33.6539 35.3632 33.0067 34.5007 32.791C33.6382 32.5753 32.7757 32.5753 31.6976 32.791C31.0507 33.0067 30.6194 33.2225 30.1882 33.6539C29.7569 34.0854 29.5413 34.5169 29.5413 34.9483C29.3256 35.3798 29.5413 36.027 29.7569 36.4584L32.9913 42.9303H27.8163C26.7381 42.9303 25.8756 43.1461 25.2287 43.7933C24.5818 44.4404 24.1506 45.0876 24.1506 45.9506C24.1506 46.8135 24.5818 47.4607 25.2287 48.1079C25.8756 48.9708 26.7381 49.1865 27.8163 49.1865Z" fill="#3C535E"/>
<path d="M10.566 75.5059C15.741 75.5059 19.838 79.8205 19.838 85.8609C19.838 91.9014 15.741 96.216 10.566 96.216C5.39088 96.216 1.29395 91.9014 1.29395 85.8609C1.29395 79.6047 5.39088 75.5059 10.566 75.5059ZM10.566 94.2744C14.2316 94.2744 17.6817 91.0384 17.6817 85.6452C17.6817 80.2519 14.016 77.016 10.566 77.016C7.1159 77.016 3.45023 80.2519 3.45023 85.6452C3.45023 91.0384 6.90028 94.2744 10.566 94.2744Z" fill="#3C535E"/>
<path d="M23.2881 81.979C23.2881 81.3319 23.5037 80.9004 24.1506 80.9004C24.7975 80.9004 25.0131 81.3319 25.0131 81.979V83.2734C25.8756 81.979 27.385 80.9004 29.7569 80.9004C32.5601 80.9004 35.1476 82.4105 35.1476 86.0779V94.9229C35.1476 95.5701 34.932 96.0015 34.2851 96.0015C33.6382 96.0015 33.4226 95.5701 33.4226 94.9229V86.2936C33.4226 83.7049 31.6976 82.4105 29.7569 82.4105C26.9538 82.4105 25.0131 84.3521 25.0131 88.0195V94.9229C25.0131 95.5701 24.7975 96.0015 24.1506 96.0015C23.5037 96.0015 23.2881 95.5701 23.2881 94.9229V81.979Z" fill="#3C535E"/>
<path d="M43.7723 79.1743C42.9098 79.1743 42.2629 79.6058 42.2629 80.253C42.2629 82.8418 54.1225 80.4687 54.1225 88.6665C54.1225 92.3339 51.3193 95.7856 46.3599 95.7856H40.1067C39.0285 95.7856 38.166 95.1384 38.166 94.0597C38.166 92.7654 39.0285 92.3339 40.1067 92.3339H44.8505C48.7318 92.3339 50.2412 91.471 50.2412 88.8822C50.2412 83.489 38.3816 87.8036 38.3816 80.4687C38.3816 77.4485 40.7536 75.7227 44.4192 75.7227H50.4568C51.535 75.7227 52.3975 76.3699 52.3975 77.4485C52.3975 78.5272 51.535 79.1743 50.4568 79.1743H43.7723Z" fill="#3C535E"/>
<path d="M61.2387 77.0167C61.2387 78.5268 60.3762 79.174 59.2981 79.174C58.2199 79.174 57.3574 78.3111 57.3574 77.0167C57.3574 75.7223 58.2199 74.8594 59.2981 74.8594C60.3762 74.8594 61.2387 75.5066 61.2387 77.0167ZM61.2387 93.8436C61.2387 94.9223 60.5918 95.7852 59.5137 95.7852C58.4356 95.7852 57.7887 94.9223 57.7887 93.8436V82.4099C57.7887 81.3313 58.4356 80.4684 59.5137 80.4684C60.5918 80.4684 61.2387 81.3313 61.2387 82.4099V93.8436Z" fill="#3C535E"/>
<path d="M69.8636 84.1365V89.9612C69.8636 91.6871 70.2948 92.55 71.5886 92.55H73.5292C74.6074 92.55 75.2543 92.9814 75.2543 94.2758C75.2543 95.3545 74.3918 96.0017 72.8824 96.0017C68.3542 96.0017 66.4135 96.0017 66.4135 90.6084V84.1365H65.3354C64.4729 84.1365 63.6104 83.705 63.6104 82.6264C63.6104 81.5477 64.4729 81.1163 65.3354 81.1163H66.4135V78.5275C66.4135 77.4489 67.0604 76.5859 68.1385 76.5859C69.2167 76.5859 69.8636 77.4489 69.8636 78.5275V81.1163H72.4511C73.3136 81.1163 74.1761 81.5477 74.1761 82.6264C74.1761 83.705 73.3136 84.1365 72.4511 84.1365H69.8636Z" fill="#3C535E"/>
<path d="M84.0952 95.7847C78.9202 95.7847 75.9014 92.9802 75.9014 88.4499C75.9014 84.1353 78.7045 80.6836 83.2327 80.6836C88.1922 80.6836 90.1328 83.9195 90.1328 87.3712C90.1328 88.4499 89.9172 89.0971 88.6234 89.0971H79.7827C79.9983 91.9016 82.1546 92.5488 84.5265 92.5488H88.4078C89.2703 92.5488 90.1328 92.9802 90.1328 94.0589C90.1328 95.1375 89.2703 95.569 88.4078 95.569H84.0952V95.7847ZM86.4671 86.5083C86.0359 84.7825 84.5265 83.7038 83.2327 83.7038C81.9389 83.7038 80.4296 84.7825 79.9983 86.5083H86.4671Z" fill="#3C535E"/>
<path d="M106.952 86.7246C107.815 86.7246 108.677 87.1561 108.677 88.2347C108.677 89.3134 107.815 89.7448 106.952 89.7448H103.071C102.208 89.7448 101.346 89.3134 101.346 88.2347C101.346 87.1561 102.208 86.7246 103.071 86.7246H106.952Z" fill="#3C535E"/>
<path d="M129.377 75.5059C134.553 75.5059 138.649 79.8205 138.649 85.8609C138.649 91.9014 134.553 96.216 129.377 96.216C124.202 96.216 120.105 91.9014 120.105 85.8609C120.105 79.6047 124.202 75.5059 129.377 75.5059ZM129.377 94.2744C133.043 94.2744 136.493 91.0384 136.493 85.6452C136.493 80.2519 132.828 77.016 129.377 77.016C125.927 77.016 122.262 80.2519 122.262 85.6452C122.262 91.0384 125.712 94.2744 129.377 94.2744Z" fill="#3C535E"/>
<path d="M142.099 81.979C142.099 81.3319 142.314 80.9004 142.961 80.9004C143.608 80.9004 143.824 81.3319 143.824 81.979V83.2734C144.686 81.979 146.196 80.9004 148.567 80.9004C151.371 80.9004 153.958 82.4105 153.958 86.0779V94.9229C153.958 95.5701 153.743 96.0015 153.096 96.0015C152.449 96.0015 152.233 95.5701 152.233 94.9229V86.2936C152.233 83.7049 150.508 82.4105 148.567 82.4105C145.764 82.4105 143.824 84.3521 143.824 88.0195V94.9229C143.824 95.5701 143.608 96.0015 142.961 96.0015C142.314 96.0015 142.099 95.5701 142.099 94.9229V81.979Z" fill="#3C535E"/>
<path d="M165.386 93.844C165.386 94.9227 164.74 95.7856 163.446 95.7856C162.152 95.7856 161.721 94.9227 161.721 93.844V79.1743H158.271C157.193 79.1743 156.33 78.5272 156.33 77.4485C156.33 76.3699 157.193 75.7227 158.271 75.7227H168.837C169.915 75.7227 170.777 76.3699 170.777 77.4485C170.777 78.5272 169.915 79.1743 168.837 79.1743H165.386V93.844Z" fill="#3C535E"/>
<path d="M175.737 77.0167C175.737 78.5268 174.874 79.174 173.796 79.174C172.718 79.174 171.855 78.3111 171.855 77.0167C171.855 75.7223 172.718 74.8594 173.796 74.8594C174.874 74.8594 175.737 75.5066 175.737 77.0167ZM175.521 93.8436C175.521 94.9223 174.874 95.7852 173.796 95.7852C172.718 95.7852 172.071 94.9223 172.071 93.8436V82.4099C172.071 81.3313 172.718 80.4684 173.796 80.4684C174.874 80.4684 175.521 81.3313 175.521 82.4099V93.8436Z" fill="#3C535E"/>
<path d="M179.618 82.4094C179.618 81.5465 180.049 80.6836 181.128 80.6836C182.206 80.6836 182.637 81.5465 182.637 82.1937C183.715 81.115 185.009 80.6836 186.303 80.6836C188.028 80.6836 189.106 81.1151 190.4 82.8409C191.693 81.7622 193.203 80.6836 195.143 80.6836C198.378 80.6836 200.318 83.0566 200.318 85.8611V93.8431C200.318 94.9218 199.672 95.7847 198.593 95.7847C197.3 95.7847 196.868 94.9218 196.868 93.8431V87.3712C196.868 85.4297 196.437 83.7038 194.496 83.7038C192.987 83.7038 191.693 84.9982 191.693 87.8027V93.8431C191.693 94.9218 191.046 95.7847 189.968 95.7847C188.89 95.7847 188.243 94.9218 188.243 93.8431V87.3712C188.243 85.4297 187.812 83.7038 185.871 83.7038C184.362 83.7038 183.068 84.9982 183.068 87.8027V93.8431C183.068 94.9218 182.421 95.7847 181.343 95.7847C180.049 95.7847 179.618 94.9218 179.618 93.8431V82.4094Z" fill="#3C535E"/>
<path d="M211.532 95.7847C206.357 95.7847 203.338 92.9802 203.338 88.4499C203.338 84.1353 206.141 80.6836 210.669 80.6836C215.629 80.6836 217.569 83.9195 217.569 87.3712C217.569 88.4499 217.354 89.0971 216.06 89.0971H207.004C207.219 91.9016 209.375 92.5488 211.747 92.5488H215.629C216.491 92.5488 217.354 92.9802 217.354 94.0589C217.354 95.1375 216.491 95.569 215.629 95.569H211.532V95.7847ZM213.904 86.5083C213.472 84.7825 211.963 83.7038 210.669 83.7038C209.375 83.7038 207.866 84.7825 207.435 86.5083H213.904Z" fill="#3C535E"/>
</g>
<defs>
<clipPath id="clip0_924_88">
<rect width="218" height="96" fill="white"/>
</clipPath>
</defs>
</svg>
