<svg width="424" height="180" viewBox="0 0 424 180" fill="none" xmlns="http://www.w3.org/2000/svg">
<path d="M43.3111 124.352L46.9716 117.562H80.8309L84.0338 124.352C84.4914 125.257 85.4065 126.162 86.3216 126.615C87.2367 127.068 88.6094 127.52 89.5245 127.52C90.8972 127.52 91.8123 127.52 93.185 127.068C95.0152 126.162 96.3879 125.257 96.8455 123.899C97.303 122.541 97.7606 121.183 96.8455 119.373L91.8123 109.415C91.3548 108.057 90.4396 107.152 89.5245 106.699C88.1518 105.794 86.7792 105.341 85.4065 105.341H41.9384C40.5657 105.341 39.6506 105.794 38.2779 106.246C36.9053 106.699 35.9901 107.604 35.5326 108.962L30.4994 119.373C29.5843 120.731 29.5843 122.089 30.4994 123.899C31.4145 125.257 32.3297 126.162 34.1599 127.068C35.5326 127.52 36.4477 127.52 37.8204 127.52C39.1931 127.52 40.1082 127.068 41.0233 126.162C42.396 126.162 42.8535 125.257 43.3111 124.352ZM13.5698 124.352L63.9012 21.1507L114.233 124.352C114.69 125.257 115.605 126.162 116.52 126.615C117.436 127.068 118.808 127.52 119.723 127.973C121.096 127.973 122.011 127.973 123.384 127.52C125.214 126.615 126.587 125.71 127.044 124.352C127.959 122.994 127.959 121.636 127.044 119.825L70.3071 3.95056C69.8495 3.04529 69.3919 2.59265 68.9344 2.14001C68.4768 1.68738 67.5617 1.23474 66.189 0.782104C65.2739 0.329468 64.3588 0.329468 62.9861 0.329468C61.6134 0.329468 60.6983 0.782104 59.7832 1.68738C58.8681 2.14001 57.953 3.04529 57.4954 3.95056L0.300549 120.278C-0.157009 121.636 -0.157009 122.994 0.758108 124.804C1.67323 126.162 2.58834 127.068 4.41858 127.973C6.24881 128.426 8.07905 128.426 9.90928 127.973C11.282 126.615 12.6546 125.71 13.5698 124.352ZM167.31 33.8246C170.97 33.8246 172.8 36.5404 172.8 42.4246V89.4988C172.8 94.4778 170.97 96.741 167.31 96.741C163.649 96.741 162.276 93.5725 162.276 87.2356V42.8773C162.276 36.993 164.107 33.8246 167.31 33.8246ZM277.124 61.4354C277.124 65.0565 271.633 65.9617 269.345 66.867C261.109 69.5828 256.991 73.2039 256.991 79.0882C256.991 82.2566 258.821 84.9725 262.024 87.2356C263.397 88.1409 264.77 88.5935 266.6 89.0462C267.972 89.4988 269.803 89.4988 272.09 89.4988C283.072 89.4988 288.563 82.7093 288.563 69.1302C288.563 63.6985 287.647 58.7196 287.647 52.8353C287.647 46.4984 283.987 43.7826 277.124 43.7826H256.533C255.161 43.7826 254.246 43.3299 252.873 42.4246C251.5 41.972 251.043 41.0667 251.043 39.7088C251.043 36.0877 253.331 34.2772 257.906 34.2772H280.784C285.36 34.2772 289.478 35.6351 292.681 38.8036C295.884 41.5194 297.256 45.5931 297.256 50.1195V91.762C297.256 95.3831 295.884 97.1936 292.681 97.1936C289.478 97.1936 287.647 94.9305 287.647 90.8567C283.987 95.3831 278.039 97.6463 269.803 97.6463C263.397 97.6463 257.906 96.2884 253.331 93.5725C248.297 90.4041 245.552 85.8777 245.552 79.5408C245.552 70.4881 250.585 64.1512 260.652 60.0775C263.397 59.1722 277.124 53.2879 277.124 61.4354ZM209.405 34.7298C214.896 34.7298 223.132 39.7088 227.25 42.8773C236.401 49.6668 240.977 58.7195 240.977 70.0355C240.977 77.7303 238.231 84.0672 232.74 89.4988C227.707 94.0252 221.301 96.2884 213.065 96.2884H190.187C186.527 96.2884 184.697 94.0252 184.697 89.9514L183.782 19.7928C183.782 15.7191 186.069 13.9086 190.187 13.9086C193.39 13.9086 194.763 17.9823 194.763 26.1297C194.305 46.4984 194.305 66.867 194.305 87.2356H198.881H203.457C210.778 87.2356 216.726 86.3304 220.844 84.5198C226.335 81.804 229.08 77.2776 229.08 70.4881C229.08 61.888 225.877 55.0985 219.014 50.1195C214.896 47.4036 203.914 46.0457 203.914 40.6141C203.914 37.4456 206.202 34.7298 209.405 34.7298ZM143.974 14.3612C147.634 14.3612 149.465 17.077 149.465 22.9613V88.1409C149.465 94.0252 147.634 96.741 143.974 96.741C140.314 96.741 138.483 94.0252 138.483 88.5935V23.4139C138.026 17.5296 140.314 14.3612 143.974 14.3612ZM335.691 34.7298C341.182 34.7298 349.418 39.7088 353.536 42.8773C362.687 49.6668 367.263 58.7195 367.263 70.0355C367.263 77.7303 364.517 84.0672 359.027 89.4988C353.993 94.0252 347.588 96.2884 339.352 96.2884H316.474C312.813 96.2884 310.983 94.0252 310.983 89.9514L310.525 19.7928C310.525 15.7191 312.813 13.9086 316.931 13.9086C320.134 13.9086 321.507 17.9823 321.507 26.1297C321.049 46.4984 321.049 66.867 321.049 87.2356H325.625H330.2C337.521 87.2356 343.47 86.3304 347.588 84.5198C353.078 81.804 355.824 77.2776 355.824 70.4881C355.824 61.888 352.621 55.0985 345.757 50.1195C341.639 47.4036 330.658 46.0457 330.658 40.6141C330.2 37.4456 332.488 34.7298 335.691 34.7298ZM403.41 61.4354C403.41 65.0565 397.919 65.9617 395.631 66.867C387.395 69.5828 383.277 73.2039 383.277 79.0882C383.277 82.2566 385.108 84.9725 388.31 87.2356C389.683 88.1409 391.056 88.5935 392.886 89.0462C394.259 89.4988 396.089 89.4988 398.377 89.4988C409.358 89.4988 414.849 82.7093 414.849 69.1302C414.849 63.6985 413.934 58.7196 413.934 52.8353C413.934 46.4984 410.273 43.7826 403.41 43.7826H382.82C381.447 43.7826 380.532 43.3299 379.159 42.4246C378.244 41.5194 377.329 40.6141 377.329 39.2562C377.329 35.6351 379.617 33.8246 384.192 33.8246H407.07C411.646 33.8246 415.764 35.1825 418.967 38.3509C422.17 41.0667 424 45.1405 424 49.6668V91.3094C424 94.9305 422.627 96.741 419.424 96.741C416.221 96.741 414.391 94.4778 414.391 90.4041C410.731 94.9305 404.783 97.1936 396.546 97.1936C390.141 97.1936 384.65 95.8357 380.074 93.1199C375.041 89.9515 372.296 85.4251 372.296 79.0882C372.296 70.0355 377.329 63.6986 387.395 59.6248C389.683 59.1722 403.41 53.2879 403.41 61.4354ZM167.31 14.8138C170.055 14.8138 172.8 17.077 172.8 20.2455C172.8 22.9613 170.512 25.6771 167.31 25.6771C164.564 25.6771 161.819 23.4139 161.819 20.2455C162.276 17.077 164.564 14.8138 167.31 14.8138ZM415.306 127.973V118.015H423.085V119.373H416.679V122.089H420.797V123.447H416.679V127.068H423.542V128.426H415.306V127.973ZM396.546 127.973L393.344 118.015H394.716L397.004 125.71L399.749 118.015H400.664L403.41 125.71L405.698 118.015H407.07L403.867 127.973H402.495L399.749 119.825L397.004 127.973H396.546ZM380.532 127.068C381.447 127.068 382.362 126.615 383.277 125.71C384.192 124.804 384.192 123.899 384.192 122.994C384.192 121.636 383.735 120.731 383.277 120.278C382.362 119.373 381.447 118.92 380.532 118.92C379.617 118.92 378.702 119.373 377.787 120.278C376.871 121.183 376.871 122.089 376.871 122.994C376.871 124.352 377.329 125.257 377.787 125.71C378.244 126.615 379.159 127.068 380.532 127.068ZM380.532 127.973C379.159 127.973 377.787 127.52 376.871 126.615C375.956 125.71 375.499 124.352 375.499 122.994C375.499 121.636 375.956 120.278 376.871 119.373C377.787 118.468 379.159 118.015 380.532 118.015C381.905 118.015 383.277 118.468 384.192 119.373C385.108 120.278 385.565 121.636 385.565 122.994C385.565 124.352 385.108 125.71 384.192 126.615C382.82 127.52 381.905 127.973 380.532 127.973ZM356.739 126.615L357.654 125.71C358.569 126.162 359.027 126.615 359.942 127.068C360.399 127.068 361.314 127.068 361.772 127.068C362.687 127.068 363.602 127.068 364.06 126.615C364.517 126.162 364.975 125.71 364.975 125.257C364.975 124.804 364.975 124.352 364.517 123.899C364.06 123.447 363.602 123.447 362.687 123.447C362.687 123.447 362.23 123.447 361.772 123.447C359.942 123.447 359.027 122.994 358.569 122.994C358.112 122.994 357.654 122.541 357.654 122.089C357.196 121.636 357.196 121.183 357.196 120.731C357.196 119.825 357.654 119.373 358.112 118.92C359.027 118.468 359.942 118.015 360.857 118.015C361.772 118.015 362.687 118.015 363.145 118.468C364.06 118.92 364.517 118.92 365.432 119.825L364.517 120.731C364.06 120.278 363.145 119.825 362.687 119.825C362.23 119.373 361.314 119.373 360.399 119.373C359.484 119.373 359.027 119.373 358.569 119.825C358.112 120.278 357.654 120.278 357.654 120.731V121.183C357.654 121.183 357.654 121.636 358.112 121.636C358.569 122.089 359.484 122.089 360.857 122.089C361.314 122.089 361.772 122.089 362.23 122.089C363.145 122.089 364.06 122.541 364.517 122.994C364.975 123.447 365.432 124.352 365.432 124.804C365.432 125.71 364.975 126.615 364.06 127.068C363.145 127.52 362.23 127.973 360.857 127.973C359.942 127.973 359.027 127.973 358.112 127.52C358.112 127.52 357.654 127.068 356.739 126.615ZM346.215 127.973V118.015H347.588V127.973H346.215ZM327.455 127.973L323.795 118.015H325.167L327.455 125.71L330.2 118.015H331.116L333.861 125.71L336.149 118.015H337.521L334.318 127.973H333.403L330.658 119.825L327.913 127.973H327.455ZM308.238 122.541H312.813C313.271 122.541 313.728 122.541 314.186 122.089C314.643 121.636 314.643 121.636 314.643 120.731C314.643 120.278 314.643 119.825 314.186 119.373C313.728 118.92 313.271 118.92 312.813 118.92H308.238V122.541ZM306.865 127.973V118.015H312.356C313.271 118.015 314.186 118.468 314.643 118.92C315.101 119.373 315.559 120.278 315.559 120.731C315.559 121.636 315.559 122.089 315.101 122.541C314.643 122.994 314.186 123.447 313.271 123.447L315.559 127.973H314.186L311.898 123.447H308.238V127.973H306.865ZM289.478 127.973V118.015H297.256V119.373H290.85V122.089H294.968V123.447H290.85V127.068H297.714V128.426H289.478V127.973ZM270.26 126.615L271.175 125.71C272.09 126.162 272.548 126.615 273.463 127.068C274.378 127.52 274.836 127.52 275.751 127.52C276.666 127.52 277.581 127.52 278.039 127.068C278.496 126.615 278.954 126.162 278.954 125.71C278.954 125.257 278.954 124.804 278.496 124.352C278.039 123.899 277.581 123.899 276.666 123.899C276.666 123.899 276.209 123.899 275.751 123.899C273.921 123.899 273.006 123.447 272.548 123.447C272.09 123.447 271.633 122.994 271.633 122.541C271.175 122.089 271.175 121.636 271.175 121.183C271.175 120.278 271.633 119.825 272.09 119.373C273.006 118.92 273.921 118.468 274.836 118.468C275.751 118.468 276.666 118.468 277.124 118.92C278.039 119.373 278.496 119.373 279.411 120.278H278.954C278.496 119.825 277.581 119.373 277.124 119.373C276.666 118.92 275.751 118.92 274.836 118.92C273.921 118.92 273.463 118.92 273.006 119.373C272.548 119.825 272.09 119.825 272.09 120.278V120.731C272.09 120.731 272.09 121.183 272.548 121.183C273.006 121.636 273.921 121.636 275.293 121.636C275.751 121.636 276.209 121.636 276.666 121.636C277.581 121.636 278.496 122.089 278.954 122.541C279.411 122.994 279.869 123.899 279.869 124.352C279.869 125.257 279.411 126.162 278.496 126.615C277.581 127.068 276.666 127.52 275.293 127.52C274.378 127.52 273.463 127.52 272.548 127.068C272.09 127.52 271.175 127.068 270.26 126.615ZM244.637 127.973V118.015H246.01L250.128 123.899L254.246 118.015H255.161V127.973H253.788V120.278L249.67 126.162L245.552 120.278V127.973H244.637ZM227.707 118.015V124.352C227.707 125.257 227.707 126.162 228.165 126.615C228.622 127.068 229.538 127.068 230.453 127.068C231.368 127.068 232.283 127.068 232.74 126.615C233.198 126.162 233.198 125.71 233.198 124.352V118.015H234.571V124.804C234.571 126.162 234.113 127.068 233.656 127.52C233.198 127.973 231.825 128.426 230.453 128.426C229.08 128.426 228.165 127.973 227.25 127.52C226.792 127.068 226.335 126.162 226.335 124.804V118.015H227.707ZM209.863 122.541H214.438C214.896 122.541 215.353 122.541 215.811 122.089C216.268 121.636 216.268 121.636 216.268 120.731C216.268 120.278 216.268 119.825 215.811 119.373C215.353 118.92 214.896 118.92 214.438 118.92H209.863V122.541ZM208.49 127.973V118.015H213.981C214.896 118.015 215.811 118.468 216.268 118.92C216.726 119.373 217.183 120.278 217.183 120.731C217.183 121.636 217.183 122.089 216.726 122.541C216.268 122.994 215.811 123.447 214.896 123.447L217.183 127.973H215.811L213.523 123.447H209.863V127.973H208.49ZM195.221 127.973V119.373H191.103V118.015H200.711V119.373H196.593V127.973H195.221ZM175.088 127.973V118.015H175.546L181.951 125.257V118.015H183.324V127.973H182.867L176.461 120.731V127.973H175.088ZM157.701 127.973V118.015H165.479V119.373H159.073V122.089H163.191V123.447H159.073V127.068H165.937V128.426H157.701V127.973ZM147.177 124.804L148.092 125.71C147.635 126.615 147.177 127.068 146.262 127.52C145.347 127.973 144.432 128.426 143.516 128.426C142.144 128.426 140.771 127.973 139.856 127.068C138.941 126.162 138.483 124.804 138.483 123.447C138.483 122.089 138.941 120.731 139.856 119.825C140.771 118.92 142.144 118.468 143.516 118.468C144.432 118.468 145.347 118.468 146.262 118.92C147.177 119.373 147.635 119.825 148.092 120.731L147.177 121.636C146.719 121.183 146.262 120.731 145.804 120.278C145.347 119.825 144.432 119.825 143.974 119.825C143.059 119.825 142.144 120.278 141.229 121.183C140.314 122.089 140.314 122.994 140.314 123.899C140.314 125.257 140.771 126.162 141.229 126.615C142.144 127.52 143.059 127.973 143.974 127.973C144.889 127.973 145.347 127.973 146.262 127.52C146.262 126.162 146.719 125.71 147.177 124.804ZM53.8349 94.9305H73.9675C76.2553 94.9305 77.628 94.4778 79.0007 93.1199C80.3733 92.2146 81.2885 90.8567 81.2885 89.0462C81.2885 88.5935 81.2885 88.1409 81.2885 87.6883C81.2885 87.2356 80.8309 86.783 80.8309 86.783L70.7646 66.4144C69.8495 65.0565 68.9344 64.1512 67.1041 63.6985C65.2739 63.2459 63.4437 63.2459 61.6134 63.6985C60.6983 64.1512 59.7832 64.6038 58.8681 65.5091C57.953 66.4144 57.4954 67.3196 57.4954 68.2249C57.4954 69.1302 57.4954 70.0355 57.953 71.3934L64.3588 84.0672H54.2925C52.4623 84.0672 50.632 84.5198 49.2593 85.8777C47.8867 86.783 47.4291 88.1409 46.9716 89.9514C46.9716 91.762 47.8867 93.1199 49.2593 94.0252C50.1745 94.4778 52.0047 94.9305 53.8349 94.9305Z" fill="white"/>
<path d="M2 162.986C2 173 9.45969 180 19.0816 180C28.7035 180 36.1632 173 36.1632 162.986C36.1632 152.972 28.7035 145.972 19.0816 145.972C9.45969 145.972 2 152.972 2 162.986ZM5.7839 162.986C5.7839 154.042 12.4868 148.694 19.0816 148.694C25.6764 148.694 32.3793 154.042 32.3793 162.986C32.3793 171.931 25.6764 177.278 19.0816 177.278C12.4868 177.278 5.7839 171.931 5.7839 162.986Z" fill="white"/>
<path d="M42.5245 178.104C42.5245 179.076 43.011 179.854 44.1461 179.854C45.2813 179.854 45.7678 179.076 45.7678 178.104V166.583C45.7678 160.556 49.3355 157.25 54.687 157.25C58.4169 157.25 61.444 159.34 61.444 163.667V178.104C61.444 179.076 61.9305 179.854 63.0656 179.854C64.2008 179.854 64.6873 179.076 64.6873 178.104V163.278C64.6873 157.396 59.8223 154.722 54.687 154.722C50.2544 154.722 47.5517 156.472 45.8759 158.757H45.7678V156.764C45.7678 155.792 45.2813 155.014 44.1461 155.014C43.011 155.014 42.5245 155.792 42.5245 156.764V178.104Z" fill="white"/>
<path d="M92.8862 152.097C94.8322 152.097 96.3999 151.174 96.3999 149.181C96.3999 147.188 94.8322 146.264 92.8862 146.264H81.6967C74.9397 146.264 70.6693 149.083 70.6693 154.139C70.6693 166.389 92.4538 159.292 92.4538 168.188C92.4538 172.319 89.4807 173.875 82.4535 173.875H73.5883C71.6423 173.875 70.0747 174.799 70.0747 176.792C70.0747 178.785 71.6423 179.708 73.5883 179.708H85.2103C94.4539 179.708 99.5891 174.069 99.5891 167.944C99.5891 154.382 77.8047 158.465 77.8047 154.042C77.8047 152.778 78.7236 152.097 80.3994 152.097H92.8862Z" fill="white"/>
<path d="M112.418 157.882C112.418 156.132 111.391 154.722 109.175 154.722C106.958 154.722 105.931 156.132 105.931 157.882V176.694C105.931 178.444 106.958 179.854 109.175 179.854C111.391 179.854 112.418 178.444 112.418 176.694V157.882ZM109.175 145C107.175 145 105.607 146.264 105.607 148.597C105.607 150.931 107.175 152.194 109.175 152.194C111.175 152.194 112.742 150.931 112.742 148.597C112.742 146.264 111.175 145 109.175 145Z" fill="white"/>
<path d="M133.355 160.264C135.085 160.264 136.49 159.438 136.49 157.639C136.49 155.84 135.085 155.014 133.355 155.014H128.598V150.882C128.598 149.132 127.571 147.722 125.355 147.722C123.138 147.722 122.111 149.132 122.111 150.882V155.014H120.273C118.49 155.014 117.084 155.84 117.084 157.639C117.084 159.438 118.49 160.264 120.273 160.264H122.111V170.764C122.111 179.708 125.895 179.708 134.112 179.708C137.031 179.708 138.49 178.833 138.49 176.938C138.49 175.042 137.031 174.167 135.193 174.167H131.733C129.247 174.167 128.598 172.806 128.598 169.889V160.264H133.355Z" fill="white"/>
<path d="M162.473 179.708C164.203 179.708 165.608 178.882 165.608 177.083C165.608 175.285 164.203 174.458 162.473 174.458H155.5C150.959 174.458 147.121 173.243 146.689 168.674H163.23C165.5 168.674 165.879 167.458 165.879 165.806C165.879 160.118 162.149 154.722 153.122 154.722C144.851 154.722 139.554 160.41 139.554 167.701C139.554 174.944 144.959 179.708 154.581 179.708H162.473ZM147.121 164.299C147.878 161.382 150.581 159.583 153.122 159.583C155.662 159.583 158.365 161.382 159.068 164.299H147.121Z" fill="white"/>
<path d="M189.736 164.736C187.952 164.736 186.547 165.563 186.547 167.361C186.547 169.16 187.952 169.986 189.736 169.986H196.764C198.493 169.986 199.899 169.16 199.899 167.361C199.899 165.563 198.493 164.736 196.764 164.736H189.736Z" fill="white"/>
<path d="M221.126 162.986C221.126 173 228.586 180 238.208 180C247.83 180 255.289 173 255.289 162.986C255.289 152.972 247.83 145.972 238.208 145.972C228.586 145.972 221.126 152.972 221.126 162.986ZM224.91 162.986C224.91 154.042 231.613 148.694 238.208 148.694C244.803 148.694 251.506 154.042 251.506 162.986C251.506 171.931 244.803 177.278 238.208 177.278C231.613 177.278 224.91 171.931 224.91 162.986Z" fill="white"/>
<path d="M261.651 178.104C261.651 179.076 262.137 179.854 263.272 179.854C264.408 179.854 264.894 179.076 264.894 178.104V166.583C264.894 160.556 268.462 157.25 273.813 157.25C277.543 157.25 280.57 159.34 280.57 163.667V178.104C280.57 179.076 281.057 179.854 282.192 179.854C283.327 179.854 283.814 179.076 283.814 178.104V163.278C283.814 157.396 278.949 154.722 273.813 154.722C269.381 154.722 266.678 156.472 265.002 158.757H264.894V156.764C264.894 155.792 264.408 155.014 263.272 155.014C262.137 155.014 261.651 155.792 261.651 156.764V178.104Z" fill="white"/>
<path d="M304.661 152.097H310.931C312.877 152.097 314.445 151.174 314.445 149.181C314.445 147.188 312.877 146.264 310.931 146.264H291.579C289.633 146.264 288.066 147.188 288.066 149.181C288.066 151.174 289.633 152.097 291.579 152.097H297.85V176.549C297.85 178.396 298.931 179.854 301.255 179.854C303.58 179.854 304.661 178.396 304.661 176.549V152.097Z" fill="white"/>
<path d="M323.52 157.882C323.52 156.132 322.493 154.722 320.277 154.722C318.061 154.722 317.034 156.132 317.034 157.882V176.694C317.034 178.444 318.061 179.854 320.277 179.854C322.493 179.854 323.52 178.444 323.52 176.694V157.882ZM320.277 145C318.277 145 316.709 146.264 316.709 148.597C316.709 150.931 318.277 152.194 320.277 152.194C322.277 152.194 323.845 150.931 323.845 148.597C323.845 146.264 322.277 145 320.277 145Z" fill="white"/>
<path d="M330.997 176.694C330.997 178.444 332.025 179.854 334.241 179.854C336.457 179.854 337.484 178.444 337.484 176.694V166.778C337.484 162.208 339.809 159.972 342.673 159.972C346.295 159.972 347.052 162.549 347.052 165.903V176.694C347.052 178.444 348.079 179.854 350.295 179.854C352.512 179.854 353.539 178.444 353.539 176.694V166.778C353.539 162.208 355.863 159.972 358.728 159.972C362.35 159.972 363.107 162.549 363.107 165.903V176.694C363.107 178.444 364.134 179.854 366.35 179.854C368.566 179.854 369.593 178.444 369.593 176.694V163.472C369.593 158.514 365.809 154.722 359.971 154.722C356.404 154.722 353.593 156.424 351.268 158.368C348.782 155.597 346.836 154.722 343.701 154.722C341.052 154.722 338.727 155.694 336.835 157.347C336.835 155.986 335.917 154.722 333.916 154.722C331.916 154.722 330.997 155.986 330.997 157.542V176.694Z" fill="white"/>
<path d="M397.595 179.708C399.324 179.708 400.73 178.882 400.73 177.083C400.73 175.285 399.324 174.458 397.595 174.458H390.621C386.081 174.458 382.243 173.243 381.81 168.674H398.351C400.622 168.674 401 167.458 401 165.806C401 160.118 397.27 154.722 388.243 154.722C379.972 154.722 374.675 160.41 374.675 167.701C374.675 174.944 380.08 179.708 389.702 179.708H397.595ZM382.243 164.299C382.999 161.382 385.702 159.583 388.243 159.583C390.784 159.583 393.486 161.382 394.189 164.299H382.243Z" fill="white"/>
</svg>
