<svg width="91" height="101" viewBox="0 0 91 101" fill="none" xmlns="http://www.w3.org/2000/svg">
<path fill-rule="evenodd" clip-rule="evenodd" d="M90.9601 52.4601C90.9601 73.7005 78.3368 91.9926 60.1831 100.244V93.6456C74.9415 85.8521 85 70.3507 85 52.5C85 26.8188 64.1812 6 38.5 6C27.1694 6 16.7852 10.0526 8.71805 16.7874H0.0351562C9.6158 6.46166 23.3033 0 38.5 0C67.4729 0 90.9601 23.4872 90.9601 52.4601Z" fill="white"/>
<path d="M60.9169 31.5407L61.1444 31.7528L61.4521 31.7985L64.882 32.3071L64.6146 35.7641L64.5906 36.0743L64.7468 36.3433L66.4877 39.342L63.6181 41.2884L63.3607 41.463L63.2478 41.7528L61.9887 44.9835L58.6778 43.9536L58.3808 43.8612L58.0838 43.9536L54.7729 44.9835L53.5138 41.7528L53.4009 41.463L53.1434 41.2884L50.2739 39.342L52.0147 36.3433L52.1709 36.0743L52.1469 35.7641L51.8796 32.3071L55.3094 31.7985L55.6171 31.7528L55.8447 31.5407L58.3808 29.1763L60.9169 31.5407Z" stroke="white" stroke-width="2"/>
<circle cx="58.3811" cy="37.4919" r="3.03439" stroke="white" stroke-width="2"/>
<circle cx="29.818" cy="32.1667" r="8.66667" stroke="white" stroke-width="3"/>
<path d="M51.059 57.7303L51.3435 57.9954L51.7281 58.0524L57.5386 58.9141L57.0857 64.7707L57.0557 65.1584L57.2509 65.4946L60.2001 70.5747L55.3388 73.8721L55.017 74.0904L54.8758 74.4527L52.7428 79.9258L47.1339 78.181L46.7626 78.0655L46.3913 78.181L40.7823 79.9258L38.6493 74.4527L38.5081 74.0904L38.1863 73.8721L33.3251 70.5747L36.2742 65.4946L36.4694 65.1584L36.4395 64.7707L35.9865 58.9141L41.7971 58.0524L42.1817 57.9954L42.4661 57.7303L46.7626 53.7246L51.059 57.7303Z" stroke="white" stroke-width="2.5"/>
<circle cx="46.7617" cy="67.5078" r="5.45503" stroke="white" stroke-width="2"/>
<path fill-rule="evenodd" clip-rule="evenodd" d="M24 46.3018H34.0393C37.5132 46.3018 40.6423 47.7779 42.8336 50.1371C43.9655 49.9121 45.1358 49.7942 46.3338 49.7942C46.3542 49.7942 46.3746 49.7942 46.395 49.7943C43.6894 45.8722 39.1645 43.3018 34.0393 43.3018H24C15.7157 43.3018 9 50.0175 9 58.3018V67.5196C9 70.2811 11.2386 72.5196 14 72.5196H29.1507C28.8766 71.5506 28.6822 70.5481 28.5752 69.5196H14C12.8954 69.5196 12 68.6242 12 67.5196V58.3018C12 51.6743 17.3726 46.3018 24 46.3018Z" fill="white"/>
</svg>
