<svg width="96" height="68" viewBox="0 0 96 68" fill="none" xmlns="http://www.w3.org/2000/svg">
<path fill-rule="evenodd" clip-rule="evenodd" d="M91.0089 4.27225H4.99107C4.43977 4.27225 3.99286 4.75044 3.99286 5.34031V57.6597C3.99286 58.2496 4.43977 58.7277 4.99108 58.7277H91.0089C91.5602 58.7277 92.0071 58.2496 92.0071 57.6597V5.34031C92.0071 4.75044 91.5602 4.27225 91.0089 4.27225ZM4.99107 0C2.23458 0 0 2.39093 0 5.34031V57.6597C0 60.6091 2.23458 63 4.99108 63H91.0089C93.7654 63 96 60.6091 96 57.6597V5.34031C96 2.39094 93.7654 0 91.0089 0H4.99107Z" fill="#304B5C"/>
<path fill-rule="evenodd" clip-rule="evenodd" d="M42 60.0001C39.7909 60.0001 38 61.791 38 64.0001C38 66.2093 39.7909 68.0001 42 68.0001H54C56.2091 68.0001 58 66.2093 58 64.0001C58 61.791 56.2091 60.0001 54 60.0001H42Z" fill="#304B5C"/>
<path fill-rule="evenodd" clip-rule="evenodd" d="M10.2578 13.298C10.2578 12.1934 11.1532 11.298 12.2578 11.298H45.4442C46.5488 11.298 47.4442 12.1934 47.4442 13.298C47.4442 14.4025 46.5488 15.298 45.4442 15.298H12.2578C11.1532 15.298 10.2578 14.4025 10.2578 13.298Z" fill="#304B5C"/>
<path fill-rule="evenodd" clip-rule="evenodd" d="M10.2578 22.2739C10.2578 21.1694 11.1532 20.2739 12.2578 20.2739H45.4442C46.5488 20.2739 47.4442 21.1694 47.4442 22.2739C47.4442 23.3785 46.5488 24.2739 45.4442 24.2739H12.2578C11.1532 24.2739 10.2578 23.3785 10.2578 22.2739Z" fill="#304B5C"/>
<path fill-rule="evenodd" clip-rule="evenodd" d="M10.2578 31.25C10.2578 30.1454 11.1532 29.25 12.2578 29.25H45.4442C46.5488 29.25 47.4442 30.1454 47.4442 31.25C47.4442 32.3546 46.5488 33.25 45.4442 33.25H12.2578C11.1532 33.25 10.2578 32.3546 10.2578 31.25Z" fill="#304B5C"/>
<path fill-rule="evenodd" clip-rule="evenodd" d="M10.2578 40.2261C10.2578 39.1215 11.1532 38.2261 12.2578 38.2261H45.4442C46.5488 38.2261 47.4442 39.1215 47.4442 40.2261C47.4442 41.3306 46.5488 42.2261 45.4442 42.2261H12.2578C11.1532 42.2261 10.2578 41.3306 10.2578 40.2261Z" fill="#304B5C"/>
<path fill-rule="evenodd" clip-rule="evenodd" d="M81.517 17.4448C82.4559 18.0266 82.7453 19.2594 82.1635 20.1983L69.8353 40.0916C68.2348 42.6741 64.453 42.5999 62.9551 39.9566L66.4352 37.9845L78.7634 18.0913C79.3453 17.1524 80.5781 16.8629 81.517 17.4448ZM59.9225 30.5482C60.8835 30.0037 62.104 30.3412 62.6486 31.3022L66.4352 37.9845L62.9551 39.9566L59.1685 33.2743C58.6239 32.3133 58.9615 31.0928 59.9225 30.5482Z" fill="#304B5C"/>
</svg>
