<svg width="46" height="69" viewBox="0 0 46 69" fill="none" xmlns="http://www.w3.org/2000/svg">
<path fill-rule="evenodd" clip-rule="evenodd" d="M22.544 22.2284C27.5696 22.2284 31.6437 18.1543 31.6437 13.1287C31.6437 8.10312 27.5696 4.02905 22.544 4.02905C17.5184 4.02905 13.4443 8.10312 13.4443 13.1287C13.4443 18.1543 17.5184 22.2284 22.544 22.2284ZM22.544 26.2284C29.7788 26.2284 35.6437 20.3635 35.6437 13.1287C35.6437 5.89398 29.7788 0.0290527 22.544 0.0290527C15.3093 0.0290527 9.44434 5.89398 9.44434 13.1287C9.44434 20.3635 15.3093 26.2284 22.544 26.2284Z" fill="#304B5C"/>
<path fill-rule="evenodd" clip-rule="evenodd" d="M22.3779 48.0726C21.2621 51.5066 18.062 53.8316 14.4512 53.8316C14.3577 53.8316 14.3098 53.8458 14.2932 53.8514C14.2753 53.8576 14.2633 53.8645 14.2514 53.8737C14.2229 53.8957 14.1679 53.9556 14.1331 54.0628C14.0983 54.1699 14.1075 54.2507 14.1176 54.2853C14.1218 54.2998 14.1275 54.3124 14.1384 54.3279C14.1485 54.3422 14.1789 54.3818 14.2546 54.4368C17.1758 56.5591 18.3981 60.3211 17.2823 63.7551C17.2534 63.8441 17.252 63.894 17.2523 63.9115C17.2526 63.9305 17.2555 63.944 17.2605 63.9582C17.2727 63.9921 17.3127 64.0629 17.4038 64.1291C17.495 64.1954 17.5747 64.2115 17.6107 64.2126C17.6257 64.2131 17.6395 64.2116 17.6576 64.206C17.6744 64.2008 17.7214 64.1841 17.7971 64.1291C20.7183 62.0068 24.6738 62.0068 27.595 64.1291C27.6706 64.1841 27.7177 64.2008 27.7345 64.206C27.7525 64.2116 27.7663 64.2131 27.7814 64.2126C27.8174 64.2115 27.8971 64.1954 27.9882 64.1291C28.0794 64.0629 28.1194 63.9921 28.1315 63.9582C28.1366 63.944 28.1395 63.9305 28.1398 63.9115C28.14 63.894 28.1387 63.8441 28.1098 63.7551C26.994 60.3211 28.2163 56.5591 31.1375 54.4368C31.2131 54.3818 31.2436 54.3422 31.2537 54.3279C31.2645 54.3124 31.2702 54.2998 31.2744 54.2853C31.2845 54.2507 31.2938 54.1699 31.259 54.0628C31.2242 53.9556 31.1692 53.8957 31.1407 53.8737C31.1288 53.8645 31.1168 53.8576 31.0989 53.8514C31.0823 53.8458 31.0344 53.8316 30.9408 53.8316C27.3301 53.8316 24.13 51.5066 23.0142 48.0726C22.9853 47.9836 22.957 47.9424 22.9465 47.9284C22.9352 47.9133 22.9249 47.904 22.9125 47.8955C22.8827 47.8752 22.8087 47.8414 22.696 47.8414C22.5834 47.8414 22.5094 47.8752 22.4796 47.8955C22.4672 47.904 22.4569 47.9133 22.4456 47.9284C22.435 47.9424 22.4068 47.9836 22.3779 48.0726ZM26.8184 46.8365C25.5209 42.8431 19.8712 42.8431 18.5736 46.8365C17.9934 48.6225 16.3291 49.8316 14.4512 49.8316C10.2523 49.8316 8.50643 55.2048 11.9035 57.6729C13.4227 58.7766 14.0584 60.7331 13.4781 62.519C12.1805 66.5125 16.7512 69.8333 20.1483 67.3652C21.6675 66.2614 23.7246 66.2614 25.2438 67.3652C28.6409 69.8333 33.2115 66.5125 31.914 62.519C31.3337 60.7331 31.9694 58.7766 33.4886 57.6729C36.8856 55.2048 35.1398 49.8316 30.9408 49.8316C29.063 49.8316 27.3987 48.6225 26.8184 46.8365Z" fill="#304B5C"/>
<path fill-rule="evenodd" clip-rule="evenodd" d="M4 49.6861H3.35072V56.6842C1.39497 55.9646 0 54.085 0 51.8795V49.6861C0 37.2356 10.0931 27.1425 22.5436 27.1425C34.9941 27.1425 45.0872 37.2356 45.0872 49.6861V51.8795C45.0872 54.0852 43.6919 55.9651 41.7358 56.6845V49.6861L41.0872 49.6861C41.0872 39.4447 32.785 31.1425 22.5436 31.1425C12.3023 31.1425 4.00001 39.4447 4 49.6861Z" fill="#304B5C"/>
</svg>
