<svg width="119" height="75" viewBox="0 0 119 75" fill="none" xmlns="http://www.w3.org/2000/svg">
<path fill-rule="evenodd" clip-rule="evenodd" d="M59.4702 35.4314C65.5229 35.4314 70.4296 30.5246 70.4296 24.4719C70.4296 18.4192 65.5229 13.5125 59.4702 13.5125C53.4175 13.5125 48.5107 18.4192 48.5107 24.4719C48.5107 30.5246 53.4175 35.4314 59.4702 35.4314ZM59.4702 39.4314C67.7321 39.4314 74.4296 32.7338 74.4296 24.4719C74.4296 16.21 67.7321 9.51245 59.4702 9.51245C51.2083 9.51245 44.5107 16.21 44.5107 24.4719C44.5107 32.7338 51.2083 39.4314 59.4702 39.4314Z" fill="#304B5C"/>
<path fill-rule="evenodd" clip-rule="evenodd" d="M37.7246 66.2193H37.5508V74.2108C35.3175 73.389 33.7246 71.2426 33.7246 68.7241V66.2193C33.7246 52.0012 45.2507 40.4751 59.4688 40.4751C73.6869 40.4751 85.213 52.0012 85.213 66.2193V68.7241C85.213 71.243 83.6194 73.3898 81.3855 74.2113V66.2193L81.213 66.2193C81.213 54.2103 71.4778 44.4751 59.4688 44.4751C47.4598 44.4751 37.7246 54.2103 37.7246 66.2193Z" fill="#304B5C"/>
<path fill-rule="evenodd" clip-rule="evenodd" d="M99.449 18.4839C103.449 18.4839 106.691 15.2416 106.691 11.242C106.691 7.24234 103.449 4 99.449 4C95.4494 4 92.207 7.24234 92.207 11.242C92.207 15.2416 95.4494 18.4839 99.449 18.4839ZM99.449 22.4839C105.658 22.4839 110.691 17.4507 110.691 11.242C110.691 5.0332 105.658 0 99.449 0C93.2402 0 88.207 5.0332 88.207 11.242C88.207 17.4507 93.2402 22.4839 99.449 22.4839Z" fill="#304B5C"/>
<path fill-rule="evenodd" clip-rule="evenodd" d="M84.4238 42.4448H83.2872V48.4264C81.6159 47.8111 80.4238 46.2046 80.4238 44.3198V42.4449C80.4238 31.8027 89.0511 23.1754 99.6933 23.1754C110.336 23.1754 118.963 31.8027 118.963 42.4449V44.3198C118.963 46.2054 117.77 47.8124 116.097 48.4271V42.4448H114.963C114.963 34.0117 108.126 27.1754 99.6933 27.1754C91.2602 27.1754 84.4239 34.0117 84.4238 42.4448Z" fill="#304B5C"/>
<path fill-rule="evenodd" clip-rule="evenodd" d="M19.0242 18.4839C23.0238 18.4839 26.2661 15.2416 26.2661 11.242C26.2661 7.24234 23.0238 4 19.0242 4C15.0246 4 11.7822 7.24234 11.7822 11.242C11.7822 15.2416 15.0246 18.4839 19.0242 18.4839ZM19.0242 22.4839C25.233 22.4839 30.2661 17.4507 30.2661 11.242C30.2661 5.0332 25.233 0 19.0242 0C12.8154 0 7.78223 5.0332 7.78223 11.242C7.78223 17.4507 12.8154 22.4839 19.0242 22.4839Z" fill="#304B5C"/>
<path fill-rule="evenodd" clip-rule="evenodd" d="M4 42.4447H2.86338V48.4265C1.19205 47.8112 0 46.2048 0 44.3199V42.445C0 31.8028 8.62725 23.1755 19.2695 23.1755C29.9117 23.1755 38.539 31.8028 38.539 42.445V44.3199C38.539 46.2055 37.346 47.8125 35.6736 48.4272V42.4447H34.539C34.5388 34.0118 27.7025 27.1755 19.2695 27.1755C10.8365 27.1755 4.00015 34.0118 4 42.4447Z" fill="#304B5C"/>
</svg>
