<svg width="24" height="24" viewBox="0 0 24 24" fill="none" xmlns="http://www.w3.org/2000/svg">
<path fill-rule="evenodd" clip-rule="evenodd" d="M12 24C18.6274 24 24 18.6272 24 12C24 5.37277 18.6274 0 12 0C5.37256 0 0 5.37277 0 12C0 18.6272 5.37256 24 12 24ZM6.18283 9.03069V17.1429H8.51883V9.03069H6.18283ZM5.99086 6.67913C5.99086 7.05246 6.12416 7.37221 6.39083 7.63895C6.65751 7.90569 6.97754 8.03906 7.35087 8.03906C7.72419 8.03906 8.04422 7.90569 8.31083 7.63895C8.44148 7.50837 8.54018 7.36496 8.60686 7.20871C8.6762 7.04576 8.71087 6.86942 8.71087 6.67913C8.71087 6.30525 8.5775 5.98549 8.31083 5.71875C8.04422 5.45201 7.72419 5.31864 7.35087 5.31864C6.97754 5.31864 6.65751 5.45201 6.39083 5.71875C6.12416 5.98549 5.99086 6.30525 5.99086 6.67913ZM13.1807 10.4068V9.03069H10.8447V17.1429H13.1807V12.8549C13.1807 12.183 13.3194 11.6814 13.5968 11.351C13.8848 11.0095 14.242 10.8387 14.6687 10.8387C15.0741 10.8387 15.3887 10.9671 15.6127 11.2227C15.8367 11.4682 15.9487 11.8309 15.9487 12.3108V17.1429H18.2847V11.8789C18.2847 10.9191 18.0501 10.1936 17.5807 9.70312C17.1114 9.20145 16.4607 8.95089 15.6288 8.95089C15.0421 8.95089 14.5354 9.08426 14.1087 9.351C13.6927 9.60659 13.3834 9.95871 13.1807 10.4068Z" fill="white"/>
</svg>
