<svg width="130" height="108" viewBox="0 0 130 108" fill="none" xmlns="http://www.w3.org/2000/svg">
<g filter="url(#filter0_d_552_35)">
<path fill-rule="evenodd" clip-rule="evenodd" d="M34.8982 42.7871H26.8008C36.3814 32.4615 50.0688 26 65.2653 26C80.4619 26 94.1493 32.4615 103.73 42.7871H95.1018C86.948 36.0525 76.4523 32 65 32C53.5477 32 43.052 36.0525 34.8982 42.7871Z" fill="white"/>
</g>
<circle cx="65" cy="77" r="27.5" stroke="white" stroke-width="3"/>
<path d="M66.6016 84.1406H60.625C60.6094 83.2812 60.6016 82.7578 60.6016 82.5703C60.6016 80.6328 60.9219 79.0391 61.5625 77.7891C62.2031 76.5391 63.4844 75.1328 65.4062 73.5703C67.3281 72.0078 68.4766 70.9844 68.8516 70.5C69.4297 69.7344 69.7188 68.8906 69.7188 67.9688C69.7188 66.6875 69.2031 65.5938 68.1719 64.6875C67.1562 63.7656 65.7812 63.3047 64.0469 63.3047C62.375 63.3047 60.9766 63.7812 59.8516 64.7344C58.7266 65.6875 57.9531 67.1406 57.5312 69.0938L51.4844 68.3438C51.6562 65.5469 52.8438 63.1719 55.0469 61.2188C57.2656 59.2656 60.1719 58.2891 63.7656 58.2891C67.5469 58.2891 70.5547 59.2812 72.7891 61.2656C75.0234 63.2344 76.1406 65.5312 76.1406 68.1562C76.1406 69.6094 75.7266 70.9844 74.8984 72.2812C74.0859 73.5781 72.3359 75.3438 69.6484 77.5781C68.2578 78.7344 67.3906 79.6641 67.0469 80.3672C66.7188 81.0703 66.5703 82.3281 66.6016 84.1406ZM60.625 93V86.4141H67.2109V93H60.625Z" fill="white"/>
<defs>
<filter id="filter0_d_552_35" x="0.800781" y="0" width="128.929" height="68.7871" filterUnits="userSpaceOnUse" color-interpolation-filters="sRGB">
<feFlood flood-opacity="0" result="BackgroundImageFix"/>
<feColorMatrix in="SourceAlpha" type="matrix" values="0 0 0 0 0 0 0 0 0 0 0 0 0 0 0 0 0 0 127 0" result="hardAlpha"/>
<feOffset/>
<feGaussianBlur stdDeviation="13"/>
<feComposite in2="hardAlpha" operator="out"/>
<feColorMatrix type="matrix" values="0 0 0 0 0 0 0 0 0 0 0 0 0 0 0 0 0 0 0.25 0"/>
<feBlend mode="normal" in2="BackgroundImageFix" result="effect1_dropShadow_552_35"/>
<feBlend mode="normal" in="SourceGraphic" in2="effect1_dropShadow_552_35" result="shape"/>
</filter>
</defs>
</svg>
